<svg width="70" height="70" viewBox="0 0 70 70" fill="none" xmlns="http://www.w3.org/2000/svg">
<g clip-path="url(#clip0_613_427)">
<path d="M35 70C54.33 70 70 54.33 70 35C70 15.67 54.33 0 35 0C15.67 0 0 15.67 0 35C0 54.33 15.67 70 35 70Z" fill="url(#paint0_linear_613_427)"/>
<path d="M10.6374 9.871L60.0841 59.4088C53.7257 65.942 44.8367 70 35 70C15.67 70 0 54.33 0 35C0 25.1401 4.07712 16.2324 10.6374 9.871Z" fill="white" fill-opacity="0.1"/>
<path d="M33.2829 47.6328C30.9019 48.7913 28.2728 49.3471 25.6266 49.2516C22.0888 49.4066 18.6562 48.0272 16.2095 45.4672C13.7783 42.7419 12.5102 39.1733 12.6766 35.525C12.5055 31.5714 13.9416 27.7169 16.6579 24.8391C19.3132 22.1225 22.9896 20.6495 26.786 20.7812C29.0037 20.6966 31.2151 21.0689 33.2829 21.875V25.3203C31.2774 24.2056 29.0147 23.6362 26.7204 23.6687C23.8304 23.5729 21.0397 24.7291 19.0641 26.8406C17.0161 29.1753 15.957 32.2153 16.111 35.3172C15.9595 38.2486 16.9471 41.1251 18.8673 43.3453C20.7303 45.3484 23.3745 46.4388 26.1079 46.3312C28.6283 46.3939 31.1165 45.7539 33.2938 44.4828L33.2829 47.6328ZM57.7063 28.9406L57.2688 30.975H52.2376L51.0345 36.75H56.4376L55.9235 38.7844H50.6298L48.9345 46.4406H46.5173L48.1688 38.7844H43.3563L41.7376 46.4406H39.3751L40.9938 38.7844H35.9188L36.3016 36.75H41.3985L42.5688 30.9859H37.2423L37.647 28.9516H42.9735L44.5923 21.2187H47.0313L45.4126 28.9516H50.2579L51.9095 21.2187H54.272L52.6532 28.9516L57.7063 28.9406ZM49.8641 30.975H45.0079L43.7501 36.75H48.6282L49.8641 30.975Z" fill="white"/>
</g>
<defs>
<linearGradient id="paint0_linear_613_427" x1="35" y1="0" x2="35" y2="70" gradientUnits="userSpaceOnUse">
<stop stop-color="#BD3ECD"/>
<stop offset="1" stop-color="#5F1F67"/>
</linearGradient>
<clipPath id="clip0_613_427">
<rect width="70" height="70" fill="white"/>
</clipPath>
</defs>
</svg>
