<svg width="60" height="60" viewBox="0 0 60 60" fill="none" xmlns="http://www.w3.org/2000/svg">
<path d="M22.2202 46.4014C22.2202 46.4014 19.9273 47.7347 23.8519 48.1859C28.6065 48.7283 31.0364 48.6506 36.276 47.6589C36.276 47.6589 37.6535 48.5226 39.5773 49.2708C27.8317 54.3047 12.9946 48.9792 22.2202 46.4014Z" fill="black"/>
<path d="M20.7852 39.832C20.7852 39.832 18.2135 41.7356 22.141 42.1419C27.22 42.6658 31.2309 42.7087 38.1715 41.3722C38.1715 41.3722 39.1314 42.3455 40.6409 42.8777C26.4397 47.0303 10.6221 43.2052 20.7852 39.832Z" fill="black"/>
<path d="M32.8848 28.6891C35.7789 32.0212 32.1244 35.0196 32.1244 35.0196C32.1244 35.0196 39.473 31.226 36.0981 26.4755C32.9461 22.0454 30.5288 19.8442 43.6147 12.2549C43.6147 12.2549 23.0742 17.3849 32.8848 28.6891Z" fill="#BD3ECD"/>
<path d="M48.4194 51.2604C48.4194 51.2604 50.1161 52.6585 46.5507 53.74C39.771 55.7939 18.3327 56.4141 12.3772 53.8219C10.2363 52.8905 14.251 51.5981 15.5139 51.3269C16.8309 51.0413 17.5836 51.0945 17.5836 51.0945C15.2027 49.4173 2.19485 54.3877 10.9762 55.8112C34.9242 59.6949 54.6312 54.0623 48.4194 51.2604Z" fill="black"/>
<path d="M23.3233 33.0264C23.3233 33.0264 12.4184 35.6165 19.4616 36.557C22.4355 36.9552 28.3638 36.8651 33.8858 36.4024C38.3988 36.0217 42.9303 35.2123 42.9303 35.2123C42.9303 35.2123 41.339 35.8938 40.1877 36.6799C29.114 39.5923 7.72161 38.2374 13.8802 35.2584C19.0885 32.7408 23.3233 33.0264 23.3233 33.0264Z" fill="black"/>
<path d="M42.8852 43.9604C54.1421 38.1109 48.9374 32.4895 45.3045 33.2469C44.4141 33.4322 44.0171 33.5928 44.0171 33.5928C44.0171 33.5928 44.3476 33.075 44.979 32.8508C52.1659 30.3241 57.6932 40.303 42.6589 44.2553C42.6589 44.2554 42.8331 44.0997 42.8852 43.9604Z" fill="black"/>
<path d="M36.0983 0C36.0983 0 42.3326 6.23638 30.1854 15.8262C20.4445 23.5188 27.9642 27.905 30.1813 32.9163C24.4954 27.7863 20.3228 23.2703 23.1221 19.0672C27.2309 12.8974 38.6137 9.90611 36.0983 0Z" fill="#BD3ECD"/>
<path d="M24.4289 59.811C35.2342 60.5026 51.8269 59.4272 52.2199 54.3145C52.2199 54.3145 51.4645 56.2527 43.2899 57.7919C34.0674 59.5275 22.6927 59.3248 15.9463 58.2125C15.9465 58.2124 17.3274 59.3556 24.4289 59.811Z" fill="black"/>
</svg>
