<svg width="70" height="70" viewBox="0 0 70 70" fill="none" xmlns="http://www.w3.org/2000/svg">
<path d="M21.776 26.0054L26.0017 28.4447V41.5524L21.776 43.9928V26.0054Z" fill="url(#paint0_linear_613_415)"/>
<path d="M29.0174 30.1856V39.8108L37.3526 34.9972L29.0174 30.1856Z" fill="url(#paint1_linear_613_415)"/>
<path d="M43.3823 34.9972L29.0174 43.2918V47.964L51.4721 34.9991L29.0174 22.0342V26.7037L43.3823 34.9972Z" fill="url(#paint2_linear_613_415)"/>
<path fill-rule="evenodd" clip-rule="evenodd" d="M34.9991 70C54.3293 70 70 54.3307 70 35C70 15.6693 54.3293 0 34.9991 0C15.6689 0 0 15.6693 0 35C0 54.3307 15.6689 70 34.9991 70ZM26.0017 16.8106V24.9626L18.7602 20.7818V49.2145L26.0017 45.0331V53.1857L57.5036 34.9991L26.0017 16.8106Z" fill="url(#paint3_linear_613_415)"/>
<defs>
<linearGradient id="paint0_linear_613_415" x1="34.9991" y1="1.10303" x2="34.9991" y2="70.3099" gradientUnits="userSpaceOnUse">
<stop stop-color="#BD3ECD"/>
<stop offset="1" stop-color="#B24093"/>
</linearGradient>
<linearGradient id="paint1_linear_613_415" x1="34.9991" y1="1.10303" x2="34.9991" y2="70.3099" gradientUnits="userSpaceOnUse">
<stop stop-color="#BD3ECD"/>
<stop offset="1" stop-color="#B24093"/>
</linearGradient>
<linearGradient id="paint2_linear_613_415" x1="34.9991" y1="1.10303" x2="34.9991" y2="70.3099" gradientUnits="userSpaceOnUse">
<stop stop-color="#BD3ECD"/>
<stop offset="1" stop-color="#B24093"/>
</linearGradient>
<linearGradient id="paint3_linear_613_415" x1="34.9991" y1="1.10303" x2="34.9991" y2="70.3099" gradientUnits="userSpaceOnUse">
<stop stop-color="#BD3ECD"/>
<stop offset="1" stop-color="#B24093"/>
</linearGradient>
</defs>
</svg>
