<svg width="26" height="20" viewBox="0 0 26 20" fill="none" xmlns="http://www.w3.org/2000/svg">
<path d="M22.0101 1.65789C20.3529 0.890529 18.5759 0.325158 16.7179 0.00135845C16.6841 -0.00489155 16.6503 0.0107283 16.6328 0.0419583C16.4043 0.452178 16.1511 0.987349 15.9739 1.40799C13.9754 1.10606 11.9873 1.10606 10.0298 1.40799C9.8525 0.977999 9.5902 0.452178 9.3606 0.0419583C9.3432 0.0117683 9.3094 -0.00385155 9.2756 0.00135845C7.4186 0.324128 5.64152 0.889489 3.98335 1.65789C3.96899 1.66414 3.95669 1.67456 3.94852 1.68808C0.577837 6.7701 -0.345533 11.7273 0.107447 16.6229C0.109487 16.6469 0.122817 16.6698 0.141257 16.6843C2.36514 18.3325 4.51935 19.3331 6.63355 19.9964C6.66739 20.0068 6.70324 19.9943 6.72477 19.9662C7.2249 19.2769 7.6707 18.5502 8.0529 17.7859C8.0755 17.7412 8.054 17.688 8.0079 17.6703C7.3007 17.3996 6.6274 17.0696 5.97971 16.6948C5.92848 16.6646 5.92437 16.5906 5.9715 16.5552C6.1078 16.4521 6.24414 16.3449 6.37428 16.2366C6.39783 16.2168 6.43064 16.2127 6.45833 16.2252C10.7134 18.1857 15.32 18.1857 19.5249 16.2252C19.5525 16.2116 19.5854 16.2158 19.6099 16.2356C19.7401 16.3439 19.8764 16.4521 20.0137 16.5552C20.0609 16.5906 20.0578 16.6646 20.0066 16.6948C19.3589 17.0769 18.6855 17.3996 17.9774 17.6693C17.9313 17.687 17.9108 17.7412 17.9333 17.7859C18.3238 18.5491 18.7696 19.2759 19.2605 19.9651C19.281 19.9943 19.3179 20.0068 19.3517 19.9964C21.4761 19.3331 23.6303 18.3325 25.8542 16.6843C25.8737 16.6698 25.886 16.6479 25.8881 16.624C26.4302 10.964 24.98 6.0476 22.0439 1.68912C22.0367 1.67456 22.0245 1.66414 22.0101 1.65789ZM8.6884 13.642C7.4073 13.642 6.35173 12.455 6.35173 10.9974C6.35173 9.5397 7.3868 8.3528 8.6884 8.3528C10.0001 8.3528 11.0455 9.5501 11.025 10.9974C11.025 12.455 9.9899 13.642 8.6884 13.642ZM17.3276 13.642C16.0466 13.642 14.991 12.455 14.991 10.9974C14.991 9.5397 16.0261 8.3528 17.3276 8.3528C18.6394 8.3528 19.6847 9.5501 19.6643 10.9974C19.6643 12.455 18.6394 13.642 17.3276 13.642Z" fill="#9D9D9D"/>
</svg>
