<svg width="50" height="60" viewBox="0 0 50 60" fill="none" xmlns="http://www.w3.org/2000/svg">
<path d="M22.068 28.4858C22.9543 29.3215 22.9543 30.68 22.068 31.5157L16.8409 36.4293L22.068 41.343C22.9543 42.1787 22.9543 43.5371 22.068 44.3728C21.1816 45.2107 19.7272 45.2107 18.8409 44.3728L12.0227 37.9443C11.1363 37.1085 11.1363 35.7501 12.0227 34.9144L18.8409 28.4858C19.7272 27.648 21.1816 27.648 22.068 28.4858Z" fill="#BD3ECD"/>
<path d="M27.9319 32.771C27.0455 33.6067 27.0455 34.9651 27.9319 35.8008L33.159 40.7145L27.9319 45.6281C27.0455 46.4638 27.0455 47.8223 27.9319 48.658C28.8182 49.4958 30.2726 49.4958 31.159 48.658L37.9771 42.2294C38.8635 41.3937 38.8635 40.0353 37.9771 39.1995L31.159 32.771C30.2726 31.9331 28.8182 31.9331 27.9319 32.771Z" fill="#BD3ECD"/>
<path fill-rule="evenodd" clip-rule="evenodd" d="M18.1818 0C17.5682 0 17.0001 0.225064 16.5683 0.627921L0.65918 15.6279C0.250089 16.0286 0 16.575 0 17.1429V49.2857C0 55.2021 5.09091 60 11.3636 60H38.6364C44.9091 60 50 55.2021 50 49.2857V10.7143C50 4.79786 44.9091 0 38.6364 0H18.1818ZM18.1818 17.1429V5.17286L5.47735 17.1429H18.1818ZM20.4545 21.4286H4.54545V49.2857C4.54545 52.8364 7.59091 55.7143 11.3636 55.7143H38.6364C42.4091 55.7143 45.4545 52.8364 45.4545 49.2857V10.7143C45.4545 7.16357 42.4091 4.28571 38.6364 4.28571H22.7273V19.2857C22.7273 20.4686 21.7045 21.4286 20.4545 21.4286Z" fill="#BD3ECD"/>
</svg>
