<svg width="237" height="58" viewBox="0 0 237 58" fill="none" xmlns="http://www.w3.org/2000/svg">
<g filter="url(#filter0_d_2050_224)">
<path d="M4 10C4 4.47715 8.47715 0 14 0H209C214.523 0 219 4.47715 219 10V40C219 45.5229 214.523 50 209 50H14C8.47716 50 4 45.5228 4 40V10Z" fill="white"/>
</g>
<path d="M89.495 26.225H94.535V28.175H89.495V26.225ZM89.675 32H87.245V21.5H95.18V23.45H89.675V32ZM101.376 32V30.425L101.226 30.08V27.26C101.226 26.76 101.071 26.37 100.761 26.09C100.461 25.81 99.9957 25.67 99.3657 25.67C98.9357 25.67 98.5107 25.74 98.0907 25.88C97.6807 26.01 97.3307 26.19 97.0407 26.42L96.2007 24.785C96.6407 24.475 97.1707 24.235 97.7907 24.065C98.4107 23.895 99.0407 23.81 99.6807 23.81C100.911 23.81 101.866 24.1 102.546 24.68C103.226 25.26 103.566 26.165 103.566 27.395V32H101.376ZM98.9157 32.12C98.2857 32.12 97.7457 32.015 97.2957 31.805C96.8457 31.585 96.5007 31.29 96.2607 30.92C96.0207 30.55 95.9007 30.135 95.9007 29.675C95.9007 29.195 96.0157 28.775 96.2457 28.415C96.4857 28.055 96.8607 27.775 97.3707 27.575C97.8807 27.365 98.5457 27.26 99.3657 27.26H101.511V28.625H99.6207C99.0707 28.625 98.6907 28.715 98.4807 28.895C98.2807 29.075 98.1807 29.3 98.1807 29.57C98.1807 29.87 98.2957 30.11 98.5257 30.29C98.7657 30.46 99.0907 30.545 99.5007 30.545C99.8907 30.545 100.241 30.455 100.551 30.275C100.861 30.085 101.086 29.81 101.226 29.45L101.586 30.53C101.416 31.05 101.106 31.445 100.656 31.715C100.206 31.985 99.6257 32.12 98.9157 32.12ZM105.684 32V23.93H108.024V32H105.684ZM106.854 22.805C106.424 22.805 106.074 22.68 105.804 22.43C105.534 22.18 105.399 21.87 105.399 21.5C105.399 21.13 105.534 20.82 105.804 20.57C106.074 20.32 106.424 20.195 106.854 20.195C107.284 20.195 107.634 20.315 107.904 20.555C108.174 20.785 108.309 21.085 108.309 21.455C108.309 21.845 108.174 22.17 107.904 22.43C107.644 22.68 107.294 22.805 106.854 22.805ZM110.195 32V20.87H112.535V32H110.195ZM118.112 32.12C117.442 32.12 116.842 31.99 116.312 31.73C115.792 31.47 115.387 31.075 115.097 30.545C114.807 30.005 114.662 29.32 114.662 28.49V23.93H117.002V28.145C117.002 28.815 117.142 29.31 117.422 29.63C117.712 29.94 118.117 30.095 118.637 30.095C118.997 30.095 119.317 30.02 119.597 29.87C119.877 29.71 120.097 29.47 120.257 29.15C120.417 28.82 120.497 28.41 120.497 27.92V23.93H122.837V32H120.617V29.78L121.022 30.425C120.752 30.985 120.352 31.41 119.822 31.7C119.302 31.98 118.732 32.12 118.112 32.12ZM125.005 32V23.93H127.24V26.21L126.925 25.55C127.165 24.98 127.55 24.55 128.08 24.26C128.61 23.96 129.255 23.81 130.015 23.81V25.97C129.915 25.96 129.825 25.955 129.745 25.955C129.665 25.945 129.58 25.94 129.49 25.94C128.85 25.94 128.33 26.125 127.93 26.495C127.54 26.855 127.345 27.42 127.345 28.19V32H125.005ZM135.353 32.12C134.433 32.12 133.623 31.94 132.923 31.58C132.233 31.22 131.698 30.73 131.318 30.11C130.938 29.48 130.748 28.765 130.748 27.965C130.748 27.155 130.933 26.44 131.303 25.82C131.683 25.19 132.198 24.7 132.848 24.35C133.498 23.99 134.233 23.81 135.053 23.81C135.843 23.81 136.553 23.98 137.183 24.32C137.823 24.65 138.328 25.13 138.698 25.76C139.068 26.38 139.253 27.125 139.253 27.995C139.253 28.085 139.248 28.19 139.238 28.31C139.228 28.42 139.218 28.525 139.208 28.625H132.653V27.26H137.978L137.078 27.665C137.078 27.245 136.993 26.88 136.823 26.57C136.653 26.26 136.418 26.02 136.118 25.85C135.818 25.67 135.468 25.58 135.068 25.58C134.668 25.58 134.313 25.67 134.003 25.85C133.703 26.02 133.468 26.265 133.298 26.585C133.128 26.895 133.043 27.265 133.043 27.695V28.055C133.043 28.495 133.138 28.885 133.328 29.225C133.528 29.555 133.803 29.81 134.153 29.99C134.513 30.16 134.933 30.245 135.413 30.245C135.843 30.245 136.218 30.18 136.538 30.05C136.868 29.92 137.168 29.725 137.438 29.465L138.683 30.815C138.313 31.235 137.848 31.56 137.288 31.79C136.728 32.01 136.083 32.12 135.353 32.12ZM141.695 32.12C141.295 32.12 140.95 31.985 140.66 31.715C140.38 31.435 140.24 31.08 140.24 30.65C140.24 30.22 140.38 29.875 140.66 29.615C140.95 29.345 141.295 29.21 141.695 29.21C142.105 29.21 142.45 29.345 142.73 29.615C143.01 29.875 143.15 30.22 143.15 30.65C143.15 31.08 143.01 31.435 142.73 31.715C142.45 31.985 142.105 32.12 141.695 32.12ZM145.621 32.12C145.221 32.12 144.876 31.985 144.586 31.715C144.306 31.435 144.166 31.08 144.166 30.65C144.166 30.22 144.306 29.875 144.586 29.615C144.876 29.345 145.221 29.21 145.621 29.21C146.031 29.21 146.376 29.345 146.656 29.615C146.936 29.875 147.076 30.22 147.076 30.65C147.076 31.08 146.936 31.435 146.656 31.715C146.376 31.985 146.031 32.12 145.621 32.12ZM149.547 32.12C149.147 32.12 148.802 31.985 148.512 31.715C148.232 31.435 148.092 31.08 148.092 30.65C148.092 30.22 148.232 29.875 148.512 29.615C148.802 29.345 149.147 29.21 149.547 29.21C149.957 29.21 150.302 29.345 150.582 29.615C150.862 29.875 151.002 30.22 151.002 30.65C151.002 31.08 150.862 31.435 150.582 31.715C150.302 31.985 149.957 32.12 149.547 32.12Z" fill="black"/>
<g filter="url(#filter1_d_2050_224)">
<path d="M58.75 16C53.3739 16 49 20.3739 49 25.75C49 31.1261 53.3739 35.5 58.75 35.5C64.1261 35.5 68.5 31.1261 68.5 25.75C68.5 20.3739 64.1261 16 58.75 16ZM62.8108 28.75L61.75 29.8108L58.75 26.8108L55.75 29.8108L54.6892 28.75L57.6892 25.75L54.6892 22.75L55.75 21.6892L58.75 24.6892L61.75 21.6892L62.8108 22.75L59.8108 25.75L62.8108 28.75Z" fill="#F20057"/>
<path d="M58.75 16.5C63.85 16.5 68 20.65 68 25.75C68 30.85 63.85 35 58.75 35C53.65 35 49.5 30.85 49.5 25.75C49.5 20.65 53.65 16.5 58.75 16.5ZM58.75 23.9824L55.75 20.9824L53.9824 22.75L56.9824 25.75L53.9824 28.75L55.75 30.5176L58.75 27.5176L61.75 30.5176L63.5176 28.75L60.5176 25.75L63.5176 22.75L61.75 20.9824L58.75 23.9824Z" stroke="#F20057"/>
</g>
<defs>
<filter id="filter0_d_2050_224" x="0" y="0" width="223" height="58" filterUnits="userSpaceOnUse" color-interpolation-filters="sRGB">
<feFlood flood-opacity="0" result="BackgroundImageFix"/>
<feColorMatrix in="SourceAlpha" type="matrix" values="0 0 0 0 0 0 0 0 0 0 0 0 0 0 0 0 0 0 127 0" result="hardAlpha"/>
<feOffset dy="4"/>
<feGaussianBlur stdDeviation="2"/>
<feComposite in2="hardAlpha" operator="out"/>
<feColorMatrix type="matrix" values="0 0 0 0 0 0 0 0 0 0 0 0 0 0 0 0 0 0 0.25 0"/>
<feBlend mode="normal" in2="BackgroundImageFix" result="effect1_dropShadow_2050_224"/>
<feBlend mode="normal" in="SourceGraphic" in2="effect1_dropShadow_2050_224" result="shape"/>
</filter>
<filter id="filter1_d_2050_224" x="45" y="16" width="27.5" height="27.5" filterUnits="userSpaceOnUse" color-interpolation-filters="sRGB">
<feFlood flood-opacity="0" result="BackgroundImageFix"/>
<feColorMatrix in="SourceAlpha" type="matrix" values="0 0 0 0 0 0 0 0 0 0 0 0 0 0 0 0 0 0 127 0" result="hardAlpha"/>
<feOffset dy="4"/>
<feGaussianBlur stdDeviation="2"/>
<feComposite in2="hardAlpha" operator="out"/>
<feColorMatrix type="matrix" values="0 0 0 0 0 0 0 0 0 0 0 0 0 0 0 0 0 0 0.25 0"/>
<feBlend mode="normal" in2="BackgroundImageFix" result="effect1_dropShadow_2050_224"/>
<feBlend mode="normal" in="SourceGraphic" in2="effect1_dropShadow_2050_224" result="shape"/>
</filter>
</defs>
</svg>
