<svg width="50" height="60" viewBox="0 0 50 60" fill="none" xmlns="http://www.w3.org/2000/svg">
<path fill-rule="evenodd" clip-rule="evenodd" d="M13.6363 25.7139C11.1363 25.7139 9.09082 27.6317 9.09082 29.9996V47.1424C9.09082 49.5103 11.1363 51.4282 13.6363 51.4282H36.3635C38.8635 51.4282 40.909 49.5103 40.909 47.1424V29.9996C40.909 27.6317 38.8635 25.7139 36.3635 25.7139H13.6363ZM13.6363 29.9996H22.7272V36.4282H13.6363V29.9996ZM27.2726 36.4282V29.9996H36.3635V36.4282H27.2726ZM27.2726 40.7139H36.3635V47.1424H27.2726V40.7139ZM22.7272 40.7139V47.1424H13.6363V40.7139H22.7272Z" fill="#BD3ECD"/>
<path fill-rule="evenodd" clip-rule="evenodd" d="M18.1818 0C17.5682 0 17.0001 0.225064 16.5683 0.627921L0.65918 15.6279C0.250089 16.0286 0 16.575 0 17.1429V49.2857C0 55.2021 5.09091 60 11.3636 60H38.6364C44.9091 60 50 55.2021 50 49.2857V10.7143C50 4.79786 44.9091 0 38.6364 0H18.1818ZM18.1818 17.1429V5.17286L5.47735 17.1429H18.1818ZM20.4545 21.4286H4.54545V49.2857C4.54545 52.8364 7.59091 55.7143 11.3636 55.7143H38.6364C42.4091 55.7143 45.4545 52.8364 45.4545 49.2857V10.7143C45.4545 7.16357 42.4091 4.28571 38.6364 4.28571H22.7273V19.2857C22.7273 20.4686 21.7045 21.4286 20.4545 21.4286Z" fill="#BD3ECD"/>
</svg>
