<svg width="28" height="27" viewBox="0 0 28 27" fill="none" xmlns="http://www.w3.org/2000/svg">
<path fill-rule="evenodd" clip-rule="evenodd" d="M14.0463 0C6.27401 0 0 6.19191 0 13.8625C0 19.962 4.02661 25.1373 9.6451 26.9856C10.3943 27.0781 10.5815 26.7084 10.5815 26.3387V23.9359C6.64858 24.7676 5.80581 22.0876 5.80581 22.0876C5.15031 20.5165 4.21389 20.0544 4.21389 20.0544C2.9029 19.2226 4.30753 19.2226 4.30753 19.2226C5.71216 19.3151 6.4613 20.6089 6.4613 20.6089C7.67865 22.7345 9.7388 22.0876 10.5815 21.7179C10.6752 20.7937 11.0498 20.2392 11.518 19.8696C8.42778 19.4999 5.15031 18.2985 5.15031 13.0307C5.15031 11.5521 5.71216 10.2582 6.55494 9.3341C6.36766 8.9644 5.89945 7.5782 6.64858 5.63741C6.64858 5.63741 7.86593 5.26774 10.4879 7.0237C11.6116 6.74641 12.829 6.56158 14.0463 6.56158C15.2636 6.56158 16.481 6.74641 17.6047 7.0237C20.3203 5.26774 21.444 5.63741 21.444 5.63741C22.1932 7.5782 21.7249 8.9644 21.5377 9.3341C22.4741 10.2582 22.9423 11.5521 22.9423 13.0307C22.9423 18.3909 19.6648 19.4999 16.5746 19.8696C17.0428 20.3316 17.5111 21.1634 17.5111 22.4572V26.2463C17.5111 26.616 17.792 27.0781 18.4475 26.8932C24.066 25.0449 27.999 19.8696 27.999 13.7701C28.0926 6.19191 21.8186 0 14.0463 0Z" fill="#9D9D9D"/>
</svg>
