<svg width="46" height="43" viewBox="0 0 46 43" fill="none" xmlns="http://www.w3.org/2000/svg">
<path fill-rule="evenodd" clip-rule="evenodd" d="M16.8138 1.24703C20.3504 -0.415842 24.3297 -0.41584 27.8664 1.24704L42.4498 8.10384C44.7432 9.18217 45.7697 11.5239 45.7697 13.6611C45.7697 15.7984 44.7432 18.1401 42.4498 19.2184L39.2308 20.7319V31.4216C39.2308 34.1605 37.8615 36.8049 35.3688 38.1893C33.7304 39.0993 31.5773 40.1947 29.3116 41.0665C27.0725 41.928 24.5931 42.6228 22.3398 42.6228C20.0864 42.6228 17.607 41.928 15.3679 41.0665C13.1022 40.1947 10.9491 39.0993 9.31074 38.1893C6.818 36.8049 5.44872 34.1605 5.44872 31.4216V20.2185C5.44872 20.1279 5.45605 20.039 5.47013 19.9525C5.41885 19.6376 5.45849 19.3044 5.60372 18.9938C5.98694 18.174 6.96023 17.821 7.77763 18.2053L18.2017 23.1065C20.8591 24.356 23.8214 24.356 26.4788 23.1065L41.062 16.2498C41.9408 15.8366 42.5004 14.8511 42.5004 13.6611C42.5004 12.4712 41.9408 11.4856 41.062 11.0725L26.4786 4.21567C23.8212 2.9662 20.8589 2.9662 18.2015 4.21567L3.61831 11.0724C2.80091 11.4567 1.82761 11.1037 1.4444 10.2839C1.06118 9.46417 1.41316 8.48807 2.23056 8.10374L16.8138 1.24703ZM8.71796 22.2686V31.4216C8.71796 33.0893 9.54343 34.5707 10.8946 35.3211C12.4565 36.1886 14.4648 37.2073 16.5389 38.0053C18.6397 38.8136 20.6788 39.3441 22.3398 39.3441C24.0007 39.3441 26.0398 38.8136 28.1406 38.0053C30.2147 37.2073 32.223 36.1886 33.7849 35.3211C35.1361 34.5707 35.9615 33.0893 35.9615 31.4216V22.2691L27.8666 26.0751C24.3299 27.738 20.3506 27.738 16.8139 26.0751L8.71796 22.2686Z" fill="white"/>
<path d="M10.7653 11.9224C11.1209 12.7546 10.7365 13.7183 9.90673 14.075L7.56231 15.0826C6.24858 15.6473 5.38301 16.0217 4.74693 16.3806C4.14542 16.72 3.88481 16.9735 3.71919 17.2254C3.55356 17.4773 3.42387 17.8174 3.34978 18.5056C3.27144 19.2333 3.26924 20.1787 3.26924 21.6121V27.8687C3.26924 28.7741 2.53739 29.5081 1.63462 29.5081C0.731848 29.5081 1.75486e-06 28.7741 1.75486e-06 27.8687V21.5272C-4.08563e-05 20.2015 -7.69702e-05 19.078 0.0994413 18.1536C0.205338 17.17 0.435602 16.2636 0.989901 15.4205C1.5442 14.5775 2.28421 14.0082 3.144 13.5231C3.952 13.0672 4.98163 12.6247 6.1966 12.1025L8.61892 11.0614C9.4487 10.7047 10.4097 11.0902 10.7653 11.9224Z" fill="white"/>
</svg>
