<svg width="50" height="60" viewBox="0 0 50 60" fill="none" xmlns="http://www.w3.org/2000/svg">
<path fill-rule="evenodd" clip-rule="evenodd" d="M18.1818 0C17.5682 0 17.0001 0.225064 16.5683 0.627921L0.65918 15.6279C0.250089 16.0286 0 16.575 0 17.1429V49.2857C0 55.2021 5.09091 60 11.3636 60H38.6364C44.9091 60 50 55.2021 50 49.2857C50 48.1029 48.9773 47.1429 47.7273 47.1429C46.4773 47.1429 45.4545 48.1029 45.4545 49.2857C45.4545 52.8364 42.4091 55.7143 38.6364 55.7143H11.3636C7.59091 55.7143 4.54545 52.8364 4.54545 49.2857V21.4286H20.4545C21.7045 21.4286 22.7273 20.4686 22.7273 19.2857V4.28571H38.6364C42.4091 4.28571 45.4545 7.16357 45.4545 10.7143V19.2857C45.4545 20.4686 46.4773 21.4286 47.7273 21.4286C48.9773 21.4286 50 20.4686 50 19.2857V10.7143C50 4.79786 44.9091 0 38.6364 0H18.1818ZM18.1818 17.1429H5.47735L18.1818 5.17286V17.1429Z" fill="#BD3ECD"/>
<path d="M37.977 24.1997C37.0906 23.3618 35.6363 23.3618 34.7499 24.1997C33.8635 25.0354 33.8635 26.3938 34.7499 27.2296L39.977 32.1432H20.4544C19.2044 32.1432 18.1816 33.1032 18.1816 34.286C18.1816 35.4689 19.2044 36.4289 20.4544 36.4289H39.977L34.7499 41.3425C33.8635 42.1783 33.8635 43.5367 34.7499 44.3724C35.6363 45.2103 37.0906 45.2103 37.977 44.3724L47.0679 35.801C47.9543 34.9653 47.9543 33.6068 47.0679 32.7711L37.977 24.1997Z" fill="#BD3ECD"/>
</svg>
