<svg width="25" height="18" viewBox="0 0 25 18" fill="none" xmlns="http://www.w3.org/2000/svg">
<path d="M0 6.10352e-05V0.500061V18.0001H25V6.10352e-05H0ZM1 1.00006H24V2.28131C23.7774 2.47485 14.9085 10.1857 14.1729 10.8233C13.5269 11.3832 12.8391 11.501 12.5 11.501C12.1609 11.501 11.4731 11.3832 10.8271 10.8233C10.6417 10.6626 9.31134 9.50589 8.34961 8.66998L8.33984 8.65729L8.33789 8.65924C5.48222 6.17716 1.1662 2.42582 1 2.28131V1.00006ZM1 3.6026C1.87369 4.36234 4.92064 7.01125 7.54102 9.28912L1 14.4571V3.6026ZM24 3.6026V14.459L17.4453 9.30084C20.0643 7.02417 23.1245 4.36392 24 3.6026ZM8.30859 9.95709C8.92647 10.4941 10.0314 11.4546 10.1729 11.5772C11.0269 12.3173 11.9391 12.4991 12.5 12.4991C13.0609 12.4991 13.9731 12.3173 14.8271 11.5772C14.9675 11.4555 16.0663 10.4994 16.6768 9.96881L24 15.7325V17.0001H1V15.7325L8.30859 9.95709Z" fill="white"/>
</svg>
