<svg width="50" height="60" viewBox="0 0 50 60" fill="none" xmlns="http://www.w3.org/2000/svg">
<path fill-rule="evenodd" clip-rule="evenodd" d="M12.8914 0.638515C13.3045 0.229229 13.8696 0 14.4566 0H28.2609C34.2609 0 39.1304 4.79786 39.1304 10.7143C45.1304 10.7143 50 15.5121 50 21.4286V49.2857C50 55.2021 45.1304 60 39.1304 60H21.7391C15.7391 60 10.8696 55.2021 10.8696 49.2857C4.86957 49.2857 0 44.4879 0 38.5714V14.415C0 13.8514 0.217476 13.3115 0.63052 12.9108L12.8914 0.638515ZM34.7826 10.7143V38.5714C34.7826 42.1221 31.8696 45 28.2609 45H10.8696C7.26087 45 4.34783 42.1221 4.34783 38.5714V19.2857H17.3913C18.587 19.2857 19.5652 18.3257 19.5652 17.1429V4.28571H28.2609C31.8696 4.28571 34.7826 7.16357 34.7826 10.7143ZM15.2174 4.4271V15H4.65221L15.2174 4.4271ZM21.7391 55.7143C18.1304 55.7143 15.2174 52.8364 15.2174 49.2857H28.2609C34.2609 49.2857 39.1304 44.4879 39.1304 38.5714V15C42.7391 15 45.6522 17.8779 45.6522 21.4286V49.2857C45.6522 52.8364 42.7391 55.7143 39.1304 55.7143H21.7391Z" fill="#BD3ECD"/>
</svg>
