<svg width="234" height="58" viewBox="0 0 234 58" fill="none" xmlns="http://www.w3.org/2000/svg">
<g filter="url(#filter0_d_2050_224)">
<path d="M4 10C4 4.47715 8.47715 0 14 0H209C214.523 0 219 4.47715 219 10V40C219 45.5229 214.523 50 209 50H14C8.47716 50 4 45.5228 4 40V10Z" fill="white"/>
</g>
<path d="M87.695 32.18C86.855 32.18 86.05 32.07 85.28 31.85C84.51 31.62 83.89 31.325 83.42 30.965L84.245 29.135C84.695 29.455 85.225 29.72 85.835 29.93C86.455 30.13 87.08 30.23 87.71 30.23C88.19 30.23 88.575 30.185 88.865 30.095C89.165 29.995 89.385 29.86 89.525 29.69C89.665 29.52 89.735 29.325 89.735 29.105C89.735 28.825 89.625 28.605 89.405 28.445C89.185 28.275 88.895 28.14 88.535 28.04C88.175 27.93 87.775 27.83 87.335 27.74C86.905 27.64 86.47 27.52 86.03 27.38C85.6 27.24 85.205 27.06 84.845 26.84C84.485 26.62 84.19 26.33 83.96 25.97C83.74 25.61 83.63 25.15 83.63 24.59C83.63 23.99 83.79 23.445 84.11 22.955C84.44 22.455 84.93 22.06 85.58 21.77C86.24 21.47 87.065 21.32 88.055 21.32C88.715 21.32 89.365 21.4 90.005 21.56C90.645 21.71 91.21 21.94 91.7 22.25L90.95 24.095C90.46 23.815 89.97 23.61 89.48 23.48C88.99 23.34 88.51 23.27 88.04 23.27C87.57 23.27 87.185 23.325 86.885 23.435C86.585 23.545 86.37 23.69 86.24 23.87C86.11 24.04 86.045 24.24 86.045 24.47C86.045 24.74 86.155 24.96 86.375 25.13C86.595 25.29 86.885 25.42 87.245 25.52C87.605 25.62 88 25.72 88.43 25.82C88.87 25.92 89.305 26.035 89.735 26.165C90.175 26.295 90.575 26.47 90.935 26.69C91.295 26.91 91.585 27.2 91.805 27.56C92.035 27.92 92.15 28.375 92.15 28.925C92.15 29.515 91.985 30.055 91.655 30.545C91.325 31.035 90.83 31.43 90.17 31.73C89.52 32.03 88.695 32.18 87.695 32.18ZM97.0504 32.12C96.3804 32.12 95.7804 31.99 95.2504 31.73C94.7304 31.47 94.3254 31.075 94.0354 30.545C93.7454 30.005 93.6004 29.32 93.6004 28.49V23.93H95.9404V28.145C95.9404 28.815 96.0804 29.31 96.3604 29.63C96.6504 29.94 97.0554 30.095 97.5754 30.095C97.9354 30.095 98.2554 30.02 98.5354 29.87C98.8154 29.71 99.0354 29.47 99.1954 29.15C99.3554 28.82 99.4354 28.41 99.4354 27.92V23.93H101.775V32H99.5554V29.78L99.9604 30.425C99.6904 30.985 99.2904 31.41 98.7604 31.7C98.2404 31.98 97.6704 32.12 97.0504 32.12ZM107.843 32.12C106.973 32.12 106.198 31.945 105.518 31.595C104.838 31.235 104.303 30.74 103.913 30.11C103.533 29.48 103.343 28.765 103.343 27.965C103.343 27.155 103.533 26.44 103.913 25.82C104.303 25.19 104.838 24.7 105.518 24.35C106.198 23.99 106.973 23.81 107.843 23.81C108.693 23.81 109.433 23.99 110.063 24.35C110.693 24.7 111.158 25.205 111.458 25.865L109.643 26.84C109.433 26.46 109.168 26.18 108.848 26C108.538 25.82 108.198 25.73 107.828 25.73C107.428 25.73 107.068 25.82 106.748 26C106.428 26.18 106.173 26.435 105.983 26.765C105.803 27.095 105.713 27.495 105.713 27.965C105.713 28.435 105.803 28.835 105.983 29.165C106.173 29.495 106.428 29.75 106.748 29.93C107.068 30.11 107.428 30.2 107.828 30.2C108.198 30.2 108.538 30.115 108.848 29.945C109.168 29.765 109.433 29.48 109.643 29.09L111.458 30.08C111.158 30.73 110.693 31.235 110.063 31.595C109.433 31.945 108.693 32.12 107.843 32.12ZM116.603 32.12C115.733 32.12 114.958 31.945 114.278 31.595C113.598 31.235 113.063 30.74 112.673 30.11C112.293 29.48 112.103 28.765 112.103 27.965C112.103 27.155 112.293 26.44 112.673 25.82C113.063 25.19 113.598 24.7 114.278 24.35C114.958 23.99 115.733 23.81 116.603 23.81C117.453 23.81 118.193 23.99 118.823 24.35C119.453 24.7 119.918 25.205 120.218 25.865L118.403 26.84C118.193 26.46 117.928 26.18 117.608 26C117.298 25.82 116.958 25.73 116.588 25.73C116.188 25.73 115.828 25.82 115.508 26C115.188 26.18 114.933 26.435 114.743 26.765C114.563 27.095 114.473 27.495 114.473 27.965C114.473 28.435 114.563 28.835 114.743 29.165C114.933 29.495 115.188 29.75 115.508 29.93C115.828 30.11 116.188 30.2 116.588 30.2C116.958 30.2 117.298 30.115 117.608 29.945C117.928 29.765 118.193 29.48 118.403 29.09L120.218 30.08C119.918 30.73 119.453 31.235 118.823 31.595C118.193 31.945 117.453 32.12 116.603 32.12ZM125.468 32.12C124.548 32.12 123.738 31.94 123.038 31.58C122.348 31.22 121.813 30.73 121.433 30.11C121.053 29.48 120.863 28.765 120.863 27.965C120.863 27.155 121.048 26.44 121.418 25.82C121.798 25.19 122.313 24.7 122.963 24.35C123.613 23.99 124.348 23.81 125.168 23.81C125.958 23.81 126.668 23.98 127.298 24.32C127.938 24.65 128.443 25.13 128.813 25.76C129.183 26.38 129.368 27.125 129.368 27.995C129.368 28.085 129.363 28.19 129.353 28.31C129.343 28.42 129.333 28.525 129.323 28.625H122.768V27.26H128.093L127.193 27.665C127.193 27.245 127.108 26.88 126.938 26.57C126.768 26.26 126.533 26.02 126.233 25.85C125.933 25.67 125.583 25.58 125.183 25.58C124.783 25.58 124.428 25.67 124.118 25.85C123.818 26.02 123.583 26.265 123.413 26.585C123.243 26.895 123.158 27.265 123.158 27.695V28.055C123.158 28.495 123.253 28.885 123.443 29.225C123.643 29.555 123.918 29.81 124.268 29.99C124.628 30.16 125.048 30.245 125.528 30.245C125.958 30.245 126.333 30.18 126.653 30.05C126.983 29.92 127.283 29.725 127.553 29.465L128.798 30.815C128.428 31.235 127.963 31.56 127.403 31.79C126.843 32.01 126.198 32.12 125.468 32.12ZM133.641 32.12C132.951 32.12 132.286 32.04 131.646 31.88C131.016 31.71 130.516 31.5 130.146 31.25L130.926 29.57C131.296 29.8 131.731 29.99 132.231 30.14C132.741 30.28 133.241 30.35 133.731 30.35C134.271 30.35 134.651 30.285 134.871 30.155C135.101 30.025 135.216 29.845 135.216 29.615C135.216 29.425 135.126 29.285 134.946 29.195C134.776 29.095 134.546 29.02 134.256 28.97C133.966 28.92 133.646 28.87 133.296 28.82C132.956 28.77 132.611 28.705 132.261 28.625C131.911 28.535 131.591 28.405 131.301 28.235C131.011 28.065 130.776 27.835 130.596 27.545C130.426 27.255 130.341 26.88 130.341 26.42C130.341 25.91 130.486 25.46 130.776 25.07C131.076 24.68 131.506 24.375 132.066 24.155C132.626 23.925 133.296 23.81 134.076 23.81C134.626 23.81 135.186 23.87 135.756 23.99C136.326 24.11 136.801 24.285 137.181 24.515L136.401 26.18C136.011 25.95 135.616 25.795 135.216 25.715C134.826 25.625 134.446 25.58 134.076 25.58C133.556 25.58 133.176 25.65 132.936 25.79C132.696 25.93 132.576 26.11 132.576 26.33C132.576 26.53 132.661 26.68 132.831 26.78C133.011 26.88 133.246 26.96 133.536 27.02C133.826 27.08 134.141 27.135 134.481 27.185C134.831 27.225 135.181 27.29 135.531 27.38C135.881 27.47 136.196 27.6 136.476 27.77C136.766 27.93 137.001 28.155 137.181 28.445C137.361 28.725 137.451 29.095 137.451 29.555C137.451 30.055 137.301 30.5 137.001 30.89C136.701 31.27 136.266 31.57 135.696 31.79C135.136 32.01 134.451 32.12 133.641 32.12ZM141.609 32.12C140.919 32.12 140.254 32.04 139.614 31.88C138.984 31.71 138.484 31.5 138.114 31.25L138.894 29.57C139.264 29.8 139.699 29.99 140.199 30.14C140.709 30.28 141.209 30.35 141.699 30.35C142.239 30.35 142.619 30.285 142.839 30.155C143.069 30.025 143.184 29.845 143.184 29.615C143.184 29.425 143.094 29.285 142.914 29.195C142.744 29.095 142.514 29.02 142.224 28.97C141.934 28.92 141.614 28.87 141.264 28.82C140.924 28.77 140.579 28.705 140.229 28.625C139.879 28.535 139.559 28.405 139.269 28.235C138.979 28.065 138.744 27.835 138.564 27.545C138.394 27.255 138.309 26.88 138.309 26.42C138.309 25.91 138.454 25.46 138.744 25.07C139.044 24.68 139.474 24.375 140.034 24.155C140.594 23.925 141.264 23.81 142.044 23.81C142.594 23.81 143.154 23.87 143.724 23.99C144.294 24.11 144.769 24.285 145.149 24.515L144.369 26.18C143.979 25.95 143.584 25.795 143.184 25.715C142.794 25.625 142.414 25.58 142.044 25.58C141.524 25.58 141.144 25.65 140.904 25.79C140.664 25.93 140.544 26.11 140.544 26.33C140.544 26.53 140.629 26.68 140.799 26.78C140.979 26.88 141.214 26.96 141.504 27.02C141.794 27.08 142.109 27.135 142.449 27.185C142.799 27.225 143.149 27.29 143.499 27.38C143.849 27.47 144.164 27.6 144.444 27.77C144.734 27.93 144.969 28.155 145.149 28.445C145.329 28.725 145.419 29.095 145.419 29.555C145.419 30.055 145.269 30.5 144.969 30.89C144.669 31.27 144.234 31.57 143.664 31.79C143.104 32.01 142.419 32.12 141.609 32.12ZM147.148 32V23.75C147.148 22.84 147.418 22.115 147.958 21.575C148.498 21.025 149.268 20.75 150.268 20.75C150.608 20.75 150.933 20.785 151.243 20.855C151.563 20.925 151.833 21.035 152.053 21.185L151.438 22.88C151.308 22.79 151.163 22.72 151.003 22.67C150.843 22.62 150.673 22.595 150.493 22.595C150.153 22.595 149.888 22.695 149.698 22.895C149.518 23.085 149.428 23.375 149.428 23.765V24.515L149.488 25.52V32H147.148ZM145.903 25.91V24.11H151.498V25.91H145.903ZM156.069 32.12C155.399 32.12 154.799 31.99 154.269 31.73C153.749 31.47 153.344 31.075 153.054 30.545C152.764 30.005 152.619 29.32 152.619 28.49V23.93H154.959V28.145C154.959 28.815 155.099 29.31 155.379 29.63C155.669 29.94 156.074 30.095 156.594 30.095C156.954 30.095 157.274 30.02 157.554 29.87C157.834 29.71 158.054 29.47 158.214 29.15C158.374 28.82 158.454 28.41 158.454 27.92V23.93H160.794V32H158.574V29.78L158.979 30.425C158.709 30.985 158.309 31.41 157.779 31.7C157.259 31.98 156.689 32.12 156.069 32.12ZM162.962 32V20.87H165.302V32H162.962Z" fill="black"/>
<defs>
<filter id="filter0_d_2050_224" x="0" y="0" width="223" height="58" filterUnits="userSpaceOnUse" color-interpolation-filters="sRGB">
<feFlood flood-opacity="0" result="BackgroundImageFix"/>
<feColorMatrix in="SourceAlpha" type="matrix" values="0 0 0 0 0 0 0 0 0 0 0 0 0 0 0 0 0 0 127 0" result="hardAlpha"/>
<feOffset dy="4"/>
<feGaussianBlur stdDeviation="2"/>
<feComposite in2="hardAlpha" operator="out"/>
<feColorMatrix type="matrix" values="0 0 0 0 0 0 0 0 0 0 0 0 0 0 0 0 0 0 0.25 0"/>
<feBlend mode="normal" in2="BackgroundImageFix" result="effect1_dropShadow_2050_224"/>
<feBlend mode="normal" in="SourceGraphic" in2="effect1_dropShadow_2050_224" result="shape"/>
</filter>
</defs>
</svg>
