<svg width="23" height="23" viewBox="0 0 23 23" fill="none" xmlns="http://www.w3.org/2000/svg">
<path d="M4.92002 0.494181C4.53526 0.462931 4.10752 0.57426 3.71299 0.851603C3.36533 1.09379 2.61533 1.68949 1.91416 2.36332C1.56455 2.69926 1.23057 3.04887 0.972757 3.39262C0.712991 3.73637 0.486428 4.05082 0.5001 4.50785C0.513772 4.91801 0.554788 6.1309 1.42783 7.99027C2.30088 9.8477 3.99424 12.3965 7.29698 15.7012C10.6017 19.0059 13.1505 20.6993 15.0079 21.5723C16.8653 22.4454 18.0802 22.4864 18.4903 22.5C18.9454 22.5137 19.2599 22.2871 19.6036 22.0274C19.9474 21.7676 20.297 21.4356 20.6329 21.086C21.3048 20.3848 21.9005 19.6348 22.1427 19.2871C22.6954 18.5 22.6036 17.5704 21.9884 17.1387C21.6017 16.8672 18.045 14.5 17.5099 14.1719C16.9669 13.8399 16.3419 13.9903 15.7833 14.2852C15.3439 14.5176 14.1544 15.1993 13.8146 15.3946C13.5587 15.2325 12.588 14.586 10.5001 12.4981C8.41026 10.4102 7.76573 9.43949 7.60362 9.18363C7.79893 8.84379 8.47862 7.6602 8.71299 7.21293C9.00596 6.65629 9.17002 6.02543 8.82041 5.47856C8.67393 5.24613 8.00791 4.23246 7.33604 3.21488C6.66221 2.19731 6.02354 1.23246 5.85752 1.00199V1.00004C5.64073 0.701213 5.30283 0.525431 4.92002 0.494181ZM4.82823 1.51567C4.96494 1.53324 5.04698 1.58793 5.04698 1.58793C5.12705 1.69926 5.82823 2.75004 6.5001 3.76567C7.17198 4.78324 7.85752 5.82621 7.97666 6.01567C7.99619 6.04496 8.02354 6.37699 7.82823 6.74613V6.74809C7.60752 7.16801 6.57823 8.96684 6.57823 8.96684L6.43565 9.21879L6.58213 9.46879C6.58213 9.46879 7.34971 10.7637 9.79112 13.2051C12.2345 15.6465 13.5294 16.4161 13.5294 16.4161L13.7794 16.5625L14.0314 16.42C14.0314 16.42 15.8263 15.3926 16.2501 15.17C16.6192 14.9766 16.9513 15.002 16.9903 15.0254C17.336 15.2383 21.1778 17.7911 21.4142 17.9571C21.422 17.9629 21.631 18.2793 21.3263 18.7129H21.3243C21.1407 18.9766 20.5392 19.7403 19.9122 20.3926C19.5978 20.7188 19.2755 21.0235 19.0021 21.2286C18.7286 21.4336 18.4845 21.4981 18.5235 21.5C18.0978 21.4864 17.1583 21.4766 15.4337 20.6661C13.7091 19.8575 11.2481 18.2383 8.00401 14.9922C4.76182 11.75 3.14268 9.2891 2.33213 7.56254C1.52354 5.83793 1.51377 4.89848 1.5001 4.47465C1.50205 4.51371 1.56651 4.26762 1.77158 3.99418C1.97666 3.72074 2.2794 3.39653 2.60557 3.08207C3.25987 2.45512 4.02158 1.85356 4.28526 1.66996V1.67192C4.50205 1.51957 4.69151 1.50004 4.82823 1.51567Z" fill="white"/>
</svg>
