<svg width="60" height="70" viewBox="0 0 60 70" fill="none" xmlns="http://www.w3.org/2000/svg">
<path fill-rule="evenodd" clip-rule="evenodd" d="M23.5714 0C22.9929 0 22.4572 0.260192 22.0501 0.725927L7.05008 18.0671C6.66437 18.5304 6.42857 19.162 6.42857 19.8185V42.1143H2.14286C0.964286 42.1143 0 43.2242 0 44.5916C0 45.9591 0.964286 47.069 2.14286 47.069H57.8571C59.0357 47.069 60 45.9591 60 44.5916C60 43.2242 59.0357 42.1143 57.8571 42.1143H53.5714V12.3866C53.5714 5.54671 48.7714 0 42.8571 0H23.5714ZM49.2857 42.1143V12.3866C49.2857 8.28166 46.4143 4.95463 42.8571 4.95463H27.8571V22.2958C27.8571 23.6633 26.8929 24.7731 25.7143 24.7731H10.7143V42.1143H49.2857ZM23.5714 19.8185V5.98024L11.5929 19.8185H23.5714Z" fill="#BD3ECD"/>
<path d="M13.0438 62.7587C11.609 62.7587 10.4351 61.6773 10.4351 60.3449V55.5173C10.4351 54.1849 11.609 53.1035 13.0438 53.1035C14.4785 53.1035 15.6524 54.1849 15.6524 55.5173V60.3449C15.6524 61.6773 14.4785 62.7587 13.0438 62.7587Z" fill="#BD3ECD"/>
<path d="M20.8691 67.5863C20.8691 68.9187 22.0431 70.0001 23.4778 70.0001C24.9126 70.0001 26.0865 68.9187 26.0865 67.5863V55.5173C26.0865 54.1849 24.9126 53.1035 23.4778 53.1035C22.0431 53.1035 20.8691 54.1849 20.8691 55.5173V67.5863Z" fill="#BD3ECD"/>
<path d="M34.5649 62.7587C33.4888 62.7587 32.6084 61.6773 32.6084 60.3449V55.5173C32.6084 54.1849 33.4888 53.1035 34.5649 53.1035C35.641 53.1035 36.5214 54.1849 36.5214 55.5173V60.3449C36.5214 61.6773 35.641 62.7587 34.5649 62.7587Z" fill="#BD3ECD"/>
<path d="M43.0435 67.5863C43.0435 68.9187 43.9239 70.0001 45 70.0001C46.0761 70.0001 46.9565 68.9187 46.9565 67.5863V55.5173C46.9565 54.1849 46.0761 53.1035 45 53.1035C43.9239 53.1035 43.0435 54.1849 43.0435 55.5173V67.5863Z" fill="#BD3ECD"/>
</svg>
