<svg width="50" height="60" viewBox="0 0 50 60" fill="none" xmlns="http://www.w3.org/2000/svg">
<path d="M14 34C14 32.896 14.99 32 16.2 32H33.8C35.01 32 36 32.896 36 34C36 35.104 35.01 36 33.8 36H16.2C14.99 36 14 35.104 14 34Z" fill="#BD3ECD"/>
<path d="M14 45C14 43.896 14.975 43 16.1667 43H24.8333C26.025 43 27 43.896 27 45C27 46.104 26.025 47 24.8333 47H16.1667C14.975 47 14 46.104 14 45Z" fill="#BD3ECD"/>
<path fill-rule="evenodd" clip-rule="evenodd" d="M18.1818 0C17.5682 0 17.0001 0.225064 16.5683 0.627921L0.65918 15.6279C0.250089 16.0286 0 16.575 0 17.1429V49.2857C0 55.2021 5.09091 60 11.3636 60H38.6364C44.9091 60 50 55.2021 50 49.2857V10.7143C50 4.79786 44.9091 0 38.6364 0H18.1818ZM18.1818 17.1429V5.17286L5.47735 17.1429H18.1818ZM20.4545 21.4286H4.54545V49.2857C4.54545 52.8364 7.59091 55.7143 11.3636 55.7143H38.6364C42.4091 55.7143 45.4545 52.8364 45.4545 49.2857V10.7143C45.4545 7.16357 42.4091 4.28571 38.6364 4.28571H22.7273V19.2857C22.7273 20.4686 21.7045 21.4286 20.4545 21.4286Z" fill="#BD3ECD"/>
</svg>
