<svg width="26" height="21" viewBox="0 0 26 21" fill="none" xmlns="http://www.w3.org/2000/svg">
<path d="M26 2.48586C25.0435 2.90758 24.0153 3.19247 22.9364 3.32064C24.0376 2.66455 24.8836 1.62563 25.2817 0.38761C24.251 0.99525 23.1094 1.43635 21.8943 1.67408C20.9214 0.64369 19.5351 0 18.0008 0C15.055 0 12.6665 2.37358 12.6665 5.3013C12.6665 5.7168 12.7137 6.1215 12.8047 6.5095C8.3715 6.2884 4.44102 4.1778 1.81008 0.97031C1.35092 1.75328 1.0878 2.66391 1.0878 3.63551C1.0878 5.4748 2.02952 7.0975 3.46082 8.0482C2.58644 8.0207 1.76393 7.7822 1.04477 7.3851C1.04416 7.4072 1.04416 7.4294 1.04416 7.4518C1.04416 10.0203 2.88289 12.1629 5.32312 12.6503C4.87553 12.7715 4.40428 12.8362 3.91781 12.8362C3.5741 12.8362 3.24 12.8028 2.91422 12.7411C3.59308 14.8472 5.56297 16.38 7.8973 16.4226C6.07166 17.8446 3.7717 18.6922 1.27244 18.6922C0.84188 18.6922 0.4173 18.667 0 18.618C2.36067 20.1223 5.16452 21 8.1769 21C17.9884 21 23.3539 12.9218 23.3539 5.9159C23.3539 5.6861 23.3487 5.4575 23.3384 5.23C24.3805 4.4827 25.2848 3.54907 25.9999 2.48586H26Z" fill="#9D9D9D"/>
</svg>
