<svg width="70" height="72" viewBox="0 0 70 72" fill="none" xmlns="http://www.w3.org/2000/svg">
<path fill-rule="evenodd" clip-rule="evenodd" d="M20.4694 0.0818713C20.5807 0.0282692 20.6935 0.00110756 20.8146 3.09141e-05C21.0739 -0.00213099 21.3197 0.110465 21.458 0.327397L25.1141 6.0563C28.105 4.90308 31.4597 4.25579 34.9998 4.25579C38.5399 4.25579 41.8946 4.90308 44.8855 6.0563L48.5416 0.327397C48.68 0.110465 48.9257 -0.00214392 49.185 3.09141e-05C49.3061 0.00103435 49.4189 0.0282692 49.5302 0.0818713C49.8955 0.257905 50.0157 0.622833 49.8126 0.941209L46.2036 6.60873C53.1472 9.7494 57.8373 15.7179 57.8467 22.5678H12.1529C12.1623 15.7179 16.8524 9.7494 23.796 6.60873L20.187 0.941209C19.984 0.622833 20.1041 0.257905 20.4694 0.0818713ZM22.5485 13.6403C22.5485 12.7335 23.4119 11.983 24.455 11.983C25.4981 11.983 26.3615 12.7335 26.3615 13.6403C26.3615 14.547 25.4981 15.2976 24.455 15.2976C23.4119 15.2976 22.5485 14.547 22.5485 13.6403ZM43.6379 13.6403C43.6379 12.7335 44.5014 11.983 45.5445 11.983C46.5876 11.983 47.451 12.7335 47.451 13.6403C47.451 14.547 46.5876 15.2976 45.5445 15.2976C44.5014 15.2976 43.6379 14.547 43.6379 13.6403Z" fill="url(#paint0_linear_652_256)"/>
<path d="M21.3403 67.5465V57.7255H17.6763C14.6164 57.7255 12.1529 55.5841 12.1529 52.9242V24.1364H57.8467V52.9242C57.8467 55.5841 55.3833 57.7255 52.3233 57.7255H48.6593V67.5465C48.6593 70.0266 46.3891 72 43.536 72C40.6829 72 38.4127 70.0266 38.4127 67.5465V57.7255H31.5869V67.5465C31.5869 70.0266 29.3167 72 26.4636 72C23.6105 72 21.3403 70.0266 21.3403 67.5465Z" fill="url(#paint1_linear_652_256)"/>
<path d="M0 27.8261C0 25.346 2.27022 23.3726 5.12329 23.3726C7.97636 23.3726 10.2466 25.346 10.2466 27.8261V46.3769C10.2466 48.857 7.97636 50.8304 5.12329 50.8304C2.27022 50.8304 0 48.857 0 46.3769V27.8261Z" fill="url(#paint2_linear_652_256)"/>
<path d="M59.7534 27.8261C59.7534 25.346 62.0236 23.3726 64.8767 23.3726C67.7298 23.3726 70 25.346 70 27.8261V46.3769C70 48.857 67.7298 50.8304 64.8767 50.8304C62.0236 50.8304 59.7534 48.857 59.7534 46.3769V27.8261Z" fill="url(#paint3_linear_652_256)"/>
<defs>
<linearGradient id="paint0_linear_652_256" x1="16.5" y1="-1.31042e-06" x2="50" y2="74" gradientUnits="userSpaceOnUse">
<stop stop-color="#BD3ECD"/>
<stop offset="1" stop-color="#B24093"/>
</linearGradient>
<linearGradient id="paint1_linear_652_256" x1="16.5" y1="-1.31042e-06" x2="50" y2="74" gradientUnits="userSpaceOnUse">
<stop stop-color="#BD3ECD"/>
<stop offset="1" stop-color="#B24093"/>
</linearGradient>
<linearGradient id="paint2_linear_652_256" x1="16.5" y1="-1.31042e-06" x2="50" y2="74" gradientUnits="userSpaceOnUse">
<stop stop-color="#BD3ECD"/>
<stop offset="1" stop-color="#B24093"/>
</linearGradient>
<linearGradient id="paint3_linear_652_256" x1="16.5" y1="-1.31042e-06" x2="50" y2="74" gradientUnits="userSpaceOnUse">
<stop stop-color="#BD3ECD"/>
<stop offset="1" stop-color="#B24093"/>
</linearGradient>
</defs>
</svg>
