<svg width="75" height="80" viewBox="0 0 75 80" fill="none" xmlns="http://www.w3.org/2000/svg">
<path fill-rule="evenodd" clip-rule="evenodd" d="M44.7 9.16786L62.0279 18.6654C62.5159 18.1748 63.0858 17.7416 63.7323 17.3851C67.3261 15.4239 71.9098 16.5884 73.9972 20C76.0631 23.4116 74.8364 27.763 71.2427 29.7446C70.6011 30.0948 69.9272 30.3453 69.2413 30.5012V49.5038C69.9198 49.66 70.5863 49.9089 71.2212 50.2554C74.8364 52.237 76.063 56.5884 73.9757 60C71.9098 63.4116 67.3046 64.5761 63.7108 62.6149C62.9953 62.2245 62.3737 61.7385 61.8532 61.1835L44.6309 70.6232C44.8771 71.3294 45.0103 72.0848 45.0103 72.8703C45.0103 76.7926 41.6533 80 37.5 80C33.3467 80 29.9897 76.8131 29.9897 72.8703C29.9897 72.1694 30.0957 71.4925 30.2935 70.8531L12.9702 61.358C12.4874 61.839 11.9254 62.2641 11.2892 62.6149C7.67389 64.5761 3.09022 63.4116 1.02435 60C-1.04153 56.5884 0.185082 52.237 3.77885 50.2554C4.41426 49.9086 5.08062 49.6596 5.75865 49.5034V30.5012C5.07277 30.3453 4.39893 30.0948 3.75733 29.7446C0.163563 27.7835 -1.06305 23.4116 1.00283 20C3.0687 16.5884 7.67389 15.4239 11.2677 17.3851C11.9107 17.7397 12.4779 18.1701 12.9641 18.6574L30.2967 9.15729C30.0969 8.51483 29.9897 7.83435 29.9897 7.12972C29.9897 3.18693 33.3467 0 37.5 0C41.6533 0 45.0103 3.18693 45.0103 7.12972C45.0103 7.83821 44.9019 8.52229 44.7 9.16786ZM42.8946 12.0941L60.2638 21.6143C59.7269 23.4044 59.924 25.3894 60.9778 27.1297C62.0351 28.8758 63.7576 30.0332 65.6691 30.4843V49.5107C65.5717 49.5334 65.4748 49.5579 65.3784 49.5843L42.693 12.2843C42.7614 12.2221 42.8287 12.1587 42.8946 12.0941ZM32.3118 12.2886L9.62676 49.5879C9.52868 49.5609 9.43004 49.5357 9.3309 49.5125V30.4843C11.2424 30.0332 12.9649 28.8758 14.0222 27.1297C15.0781 25.3859 15.2739 23.3966 14.733 21.6037L32.0973 12.0862C32.1674 12.155 32.2389 12.2225 32.3118 12.2886ZM39.5985 13.9783L62.2784 51.2693C61.7708 51.7287 61.3234 52.264 60.9563 52.8703C60.5914 53.473 60.3291 54.1057 60.1646 54.7497H14.8358C14.6713 54.1061 14.4089 53.4735 14.0437 52.8703C13.6751 52.2679 13.2287 51.7355 12.7236 51.2781L35.4079 13.9801C36.0718 14.162 36.7737 14.2594 37.5 14.2594C38.2286 14.2594 38.9327 14.1614 39.5985 13.9783ZM43.0541 68.067L60.3106 58.6086C60.2588 58.4543 60.2125 58.2983 60.1719 58.141H14.8262C14.8022 58.2334 14.7762 58.3254 14.7483 58.4168L32.0894 67.9216C33.4548 66.5764 35.373 65.7405 37.5 65.7405C39.7027 65.7405 41.6814 66.6369 43.0541 68.067Z" fill="url(#paint0_linear_652_177)"/>
<defs>
<linearGradient id="paint0_linear_652_177" x1="4.41176" y1="18.6667" x2="72.1923" y2="60.8829" gradientUnits="userSpaceOnUse">
<stop stop-color="#BD3ECD"/>
<stop offset="1" stop-color="#B24093"/>
</linearGradient>
</defs>
</svg>
