<svg width="40" height="40" viewBox="0 0 40 40" fill="none" xmlns="http://www.w3.org/2000/svg">
<path d="M26.6667 37.9166H18.3333C17.65 37.9166 17.0833 37.35 17.0833 36.6666C17.0833 35.9833 17.65 35.4166 18.3333 35.4166H26.6667C31.4333 35.4166 33.75 33.1 33.75 28.3333V11.6666C33.75 6.89998 31.4333 4.58331 26.6667 4.58331H13.3333C8.56667 4.58331 6.25 6.89998 6.25 11.6666V23.3333C6.25 24.0166 5.68333 24.5833 5 24.5833C4.31667 24.5833 3.75 24.0166 3.75 23.3333V11.6666C3.75 5.58331 7.25 2.08331 13.3333 2.08331H26.6667C32.75 2.08331 36.25 5.58331 36.25 11.6666V28.3333C36.25 34.4166 32.75 37.9166 26.6667 37.9166Z" fill="url(#paint0_linear_613_208)"/>
<path d="M30.8337 15.4167H27.5003C24.967 15.4167 22.917 13.3667 22.917 10.8333V7.5C22.917 6.81667 23.4837 6.25 24.167 6.25C24.8503 6.25 25.417 6.81667 25.417 7.5V10.8333C25.417 11.9833 26.3503 12.9167 27.5003 12.9167H30.8337C31.517 12.9167 32.0837 13.4833 32.0837 14.1667C32.0837 14.85 31.517 15.4167 30.8337 15.4167Z" fill="url(#paint1_linear_613_208)"/>
<path d="M6.66706 36.25C6.35039 36.25 6.03372 36.1333 5.78372 35.8833L2.45039 32.55C1.96706 32.0667 1.96706 31.2666 2.45039 30.7832L5.78372 27.4499C6.26706 26.9666 7.06705 26.9666 7.55039 27.4499C8.03372 27.9332 8.03372 28.7333 7.55039 29.2167L5.10038 31.6666L7.55039 34.1166C8.03372 34.5999 8.03372 35.4 7.55039 35.8833C7.30039 36.1333 6.98372 36.25 6.66706 36.25Z" fill="url(#paint2_linear_613_208)"/>
<path d="M11.6667 36.25C11.3501 36.25 11.0334 36.1333 10.7834 35.8833C10.3001 35.4 10.3001 34.5999 10.7834 34.1166L13.2334 31.6666L10.7834 29.2167C10.3001 28.7333 10.3001 27.9332 10.7834 27.4499C11.2667 26.9666 12.0667 26.9666 12.5501 27.4499L15.8834 30.7832C16.3667 31.2666 16.3667 32.0667 15.8834 32.55L12.5501 35.8833C12.3001 36.1333 11.9834 36.25 11.6667 36.25Z" fill="url(#paint3_linear_613_208)"/>
<defs>
<linearGradient id="paint0_linear_613_208" x1="20" y1="2.08331" x2="20" y2="37.9166" gradientUnits="userSpaceOnUse">
<stop stop-color="#BD3ECD"/>
<stop offset="1" stop-color="#B24093"/>
</linearGradient>
<linearGradient id="paint1_linear_613_208" x1="27.5003" y1="6.25" x2="27.5003" y2="15.4167" gradientUnits="userSpaceOnUse">
<stop stop-color="#BD3ECD"/>
<stop offset="1" stop-color="#B24093"/>
</linearGradient>
<linearGradient id="paint2_linear_613_208" x1="5.00039" y1="27.0874" x2="5.00039" y2="36.25" gradientUnits="userSpaceOnUse">
<stop stop-color="#BD3ECD"/>
<stop offset="1" stop-color="#B24093"/>
</linearGradient>
<linearGradient id="paint3_linear_613_208" x1="13.3334" y1="27.0874" x2="13.3334" y2="36.25" gradientUnits="userSpaceOnUse">
<stop stop-color="#BD3ECD"/>
<stop offset="1" stop-color="#B24093"/>
</linearGradient>
</defs>
</svg>
