<svg width="80" height="80" viewBox="0 0 80 80" fill="none" xmlns="http://www.w3.org/2000/svg">
<g clip-path="url(#clip0_613_421)">
<path d="M29.6269 61.8684C29.6269 61.8684 26.5697 63.6462 31.8025 64.2478C38.1419 64.971 41.3819 64.8673 48.368 63.5451C48.368 63.5451 50.2047 64.6968 52.7698 65.6942C37.1089 72.4062 17.3261 65.3055 29.6269 61.8684Z" fill="white"/>
<path d="M27.7139 53.1097C27.7139 53.1097 24.285 55.6478 29.5217 56.1895C36.2936 56.8881 41.6416 56.9452 50.8956 55.1633C50.8956 55.1633 52.1755 56.4609 54.1882 57.1706C35.2532 62.7074 14.1631 57.6072 27.7139 53.1097Z" fill="white"/>
<path d="M43.8465 38.252C47.7053 42.6948 42.8326 46.6927 42.8326 46.6927C42.8326 46.6927 52.6309 41.6345 48.131 35.3005C43.9282 29.3937 40.7053 26.4588 58.1531 16.3397C58.1531 16.3397 30.7658 23.1798 43.8465 38.252Z" fill="#BD3ECD"/>
<path d="M64.5592 68.3469C64.5592 68.3469 66.8215 70.211 62.0676 71.6531C53.028 74.3915 24.4435 75.2185 16.5029 71.7622C13.6485 70.5204 19.0014 68.7971 20.6852 68.4355C22.4412 68.0547 23.4448 68.1257 23.4448 68.1257C20.2703 65.8894 2.92646 72.5167 14.6349 74.4146C46.5657 79.5929 72.8416 72.0828 64.5592 68.3469Z" fill="white"/>
<path d="M31.0974 44.0347C31.0974 44.0347 16.5576 47.4881 25.9485 48.7422C29.9136 49.2731 37.818 49.153 45.1808 48.5361C51.1981 48.0285 57.2401 46.9493 57.2401 46.9493C57.2401 46.9493 55.1183 47.8579 53.5833 48.9061C38.8183 52.7893 10.2952 50.9828 18.5066 47.0107C25.4511 43.6539 31.0974 44.0347 31.0974 44.0347Z" fill="white"/>
<path d="M57.1801 58.614C72.1894 50.8146 65.2497 43.3194 60.4058 44.3292C59.2186 44.5763 58.6892 44.7904 58.6892 44.7904C58.6892 44.7904 59.13 44.1 59.9718 43.8011C69.5544 40.4322 76.9241 53.7374 56.8784 59.007C56.8784 59.0073 57.1106 58.7996 57.1801 58.614Z" fill="white"/>
<path d="M48.1314 0C48.1314 0 56.4438 8.31517 40.2475 21.1016C27.2597 31.3584 37.2859 37.2066 40.2421 43.8885C32.6609 37.0484 27.0973 31.027 30.8298 25.4229C36.3082 17.1966 51.4853 13.2082 48.1314 0Z" fill="#BD3ECD"/>
<path d="M32.5719 79.7485C46.979 80.6708 69.1026 79.2369 69.6266 72.4198C69.6266 72.4198 68.6194 75.0041 57.7199 77.0564C45.4232 79.3705 30.257 79.1004 21.2617 77.6173C21.2619 77.6171 23.1032 79.1413 32.5719 79.7485Z" fill="white"/>
</g>
<defs>
<clipPath id="clip0_613_421">
<rect width="80" height="80" fill="white"/>
</clipPath>
</defs>
</svg>
