<svg width="40" height="40" viewBox="0 0 40 40" fill="none" xmlns="http://www.w3.org/2000/svg">
<path d="M26.6663 27.9166H13.333C12.6497 27.9166 12.083 27.35 12.083 26.6666V13.3333C12.083 12.65 12.6497 12.0833 13.333 12.0833H26.6663C27.3497 12.0833 27.9163 12.65 27.9163 13.3333V26.6666C27.9163 27.35 27.3497 27.9166 26.6663 27.9166ZM14.583 25.4166H25.4163V14.5833H14.583V25.4166Z" fill="url(#paint0_linear_613_186)"/>
<path d="M8.33301 37.9166C4.88301 37.9166 2.08301 35.1166 2.08301 31.6666C2.08301 28.2166 4.88301 25.4166 8.33301 25.4166H13.333C14.0163 25.4166 14.583 25.9833 14.583 26.6666V31.6666C14.583 35.1166 11.783 37.9166 8.33301 37.9166ZM8.33301 27.9166C6.26634 27.9166 4.58301 29.6 4.58301 31.6666C4.58301 33.7333 6.26634 35.4166 8.33301 35.4166C10.3997 35.4166 12.083 33.7333 12.083 31.6666V27.9166H8.33301Z" fill="url(#paint1_linear_613_186)"/>
<path d="M13.333 14.5833H8.33301C4.88301 14.5833 2.08301 11.7833 2.08301 8.33331C2.08301 4.88331 4.88301 2.08331 8.33301 2.08331C11.783 2.08331 14.583 4.88331 14.583 8.33331V13.3333C14.583 14.0166 14.0163 14.5833 13.333 14.5833ZM8.33301 4.58331C6.26634 4.58331 4.58301 6.26665 4.58301 8.33331C4.58301 10.4 6.26634 12.0833 8.33301 12.0833H12.083V8.33331C12.083 6.26665 10.3997 4.58331 8.33301 4.58331Z" fill="url(#paint2_linear_613_186)"/>
<path d="M31.667 14.5833H26.667C25.9837 14.5833 25.417 14.0166 25.417 13.3333V8.33331C25.417 4.88331 28.217 2.08331 31.667 2.08331C35.117 2.08331 37.917 4.88331 37.917 8.33331C37.917 11.7833 35.117 14.5833 31.667 14.5833ZM27.917 12.0833H31.667C33.7337 12.0833 35.417 10.4 35.417 8.33331C35.417 6.26665 33.7337 4.58331 31.667 4.58331C29.6003 4.58331 27.917 6.26665 27.917 8.33331V12.0833Z" fill="url(#paint3_linear_613_186)"/>
<path d="M31.667 37.9166C28.217 37.9166 25.417 35.1166 25.417 31.6666V26.6666C25.417 25.9833 25.9837 25.4166 26.667 25.4166H31.667C35.117 25.4166 37.917 28.2166 37.917 31.6666C37.917 35.1166 35.117 37.9166 31.667 37.9166ZM27.917 27.9166V31.6666C27.917 33.7333 29.6003 35.4166 31.667 35.4166C33.7337 35.4166 35.417 33.7333 35.417 31.6666C35.417 29.6 33.7337 27.9166 31.667 27.9166H27.917Z" fill="url(#paint4_linear_613_186)"/>
<defs>
<linearGradient id="paint0_linear_613_186" x1="19.9997" y1="12.0833" x2="19.9997" y2="27.9166" gradientUnits="userSpaceOnUse">
<stop stop-color="#BD3ECD"/>
<stop offset="1" stop-color="#B24093"/>
</linearGradient>
<linearGradient id="paint1_linear_613_186" x1="8.33301" y1="25.4166" x2="8.33301" y2="37.9166" gradientUnits="userSpaceOnUse">
<stop stop-color="#BD3ECD"/>
<stop offset="1" stop-color="#B24093"/>
</linearGradient>
<linearGradient id="paint2_linear_613_186" x1="8.33301" y1="2.08331" x2="8.33301" y2="14.5833" gradientUnits="userSpaceOnUse">
<stop stop-color="#BD3ECD"/>
<stop offset="1" stop-color="#B24093"/>
</linearGradient>
<linearGradient id="paint3_linear_613_186" x1="31.667" y1="2.08331" x2="31.667" y2="14.5833" gradientUnits="userSpaceOnUse">
<stop stop-color="#BD3ECD"/>
<stop offset="1" stop-color="#B24093"/>
</linearGradient>
<linearGradient id="paint4_linear_613_186" x1="31.667" y1="25.4166" x2="31.667" y2="37.9166" gradientUnits="userSpaceOnUse">
<stop stop-color="#BD3ECD"/>
<stop offset="1" stop-color="#B24093"/>
</linearGradient>
</defs>
</svg>
