<svg width="75" height="75" viewBox="0 0 75 75" fill="none" xmlns="http://www.w3.org/2000/svg">
<g clip-path="url(#clip0_652_280)">
<path d="M56.2753 0L37.5029 12.6176L37.571 13.0261L55.8066 25.1829L56.2753 25.1946L56.51 24.7975L56.5553 0.551399L56.2753 0Z" fill="#721A5A"/>
<path d="M18.5327 50.9111L18.4707 73.7651L18.9453 74.9026L37.6247 62.5106L37.4953 61.8438L20.3239 50.355L18.9453 50L18.5327 50.9111Z" fill="#721A5A"/>
<path d="M56.2753 0V25.1946L19.1156 0.291625L18.8848 1.32546L73.5057 62.0909L74.9521 62.6216V12.4998L56.2753 0Z" fill="#802968"/>
<path d="M0.146484 12.5485V62.4514L18.9452 74.9027V50.0001L56.2749 75L74.8547 62.5487L19.1152 0.291779L0.146484 12.5485Z" fill="#A132AF"/>
</g>
<defs>
<clipPath id="clip0_652_280">
<rect width="75" height="75" fill="white"/>
</clipPath>
</defs>
</svg>
