<svg width="41" height="40" viewBox="0 0 41 40" fill="none" xmlns="http://www.w3.org/2000/svg">
<path fill-rule="evenodd" clip-rule="evenodd" d="M27.1005 2.85689C21.0432 2.85689 16.1271 7.65647 16.1271 13.5702C16.1271 14.5416 16.2735 15.4986 16.5222 16.3985L16.7415 17.1842L4.30509 29.3403C2.4762 31.1259 2.4762 34.0114 4.30509 35.7969C6.13398 37.5825 9.08949 37.5825 10.9184 35.7969L23.3402 23.6694L24.1596 23.8979C25.096 24.155 26.0909 24.2836 27.1005 24.2836C33.1724 24.2836 38.0738 19.484 38.0738 13.5702C38.0738 13.1417 38.0591 12.7133 38.0006 12.2848L33.2162 16.9558C30.5094 19.6127 26.1055 19.6127 23.3841 16.9558C20.6627 14.2989 20.6774 9.98468 23.4134 7.34205L28.0222 2.89979C27.715 2.87122 27.4077 2.85689 27.1005 2.85689ZM13.2009 13.5702C13.2009 6.07089 19.4338 0 27.1005 0C27.6857 0 28.2709 0.0286665 28.8415 0.100089C30.012 0.242933 30.8167 1.04261 31.0801 1.98539C31.3434 2.91387 31.08 3.95683 30.3192 4.68534L25.4764 9.37068C23.8816 10.8991 23.8816 13.3988 25.4618 14.9415C27.0273 16.4699 29.5731 16.4699 31.1533 14.9415L36.1424 10.0563C36.9032 9.3278 37.942 9.07065 38.8784 9.31349C39.8294 9.55632 40.6489 10.3134 40.8391 11.4276C40.9415 12.1275 41 12.8417 41 13.5702C41 21.0696 34.7818 27.1405 27.1005 27.1405C26.1202 27.1405 25.1546 27.0405 24.2328 26.8548L12.9961 37.8252C10.0259 40.7249 5.1977 40.7249 2.22759 37.8252C-0.742528 34.9255 -0.742528 30.2118 2.22759 27.312L13.4935 16.327C13.3033 15.4271 13.2009 14.513 13.2009 13.5702Z" fill="url(#paint0_linear_613_213)"/>
<defs>
<linearGradient id="paint0_linear_613_213" x1="20.5" y1="0" x2="20.5" y2="40" gradientUnits="userSpaceOnUse">
<stop stop-color="#BD3ECD"/>
<stop offset="1" stop-color="#B24093"/>
</linearGradient>
</defs>
</svg>
