<svg width="40" height="40" viewBox="0 0 40 40" fill="none" xmlns="http://www.w3.org/2000/svg">
<path d="M11.4832 26.2501C11.0165 26.2501 10.5832 26.0001 10.3665 25.5667C10.0498 24.9501 10.2998 24.2001 10.9332 23.8834C12.3832 23.1667 13.6165 22.0667 14.4998 20.7334C14.7998 20.2834 14.7998 19.7167 14.4998 19.2667C13.5998 17.9334 12.3665 16.8334 10.9332 16.1167C10.2998 15.8167 10.0498 15.0667 10.3665 14.4334C10.6665 13.8167 11.4165 13.5667 12.0332 13.8834C13.8665 14.8001 15.4332 16.1834 16.5665 17.8834C17.4165 19.1667 17.4165 20.8334 16.5665 22.1167C15.4332 23.8167 13.8665 25.2001 12.0332 26.1167C11.8665 26.2001 11.6665 26.2501 11.4832 26.2501Z" fill="url(#paint0_linear_613_223)"/>
<path d="M28.3337 26.25H21.667C20.9837 26.25 20.417 25.6833 20.417 25C20.417 24.3167 20.9837 23.75 21.667 23.75H28.3337C29.017 23.75 29.5837 24.3167 29.5837 25C29.5837 25.6833 29.017 26.25 28.3337 26.25Z" fill="url(#paint1_linear_613_223)"/>
<path d="M24.9997 37.9167H14.9997C5.94967 37.9167 2.08301 34.05 2.08301 25V15C2.08301 5.95004 5.94967 2.08337 14.9997 2.08337H24.9997C34.0497 2.08337 37.9163 5.95004 37.9163 15V25C37.9163 34.05 34.0497 37.9167 24.9997 37.9167ZM14.9997 4.58337C7.31634 4.58337 4.58301 7.31671 4.58301 15V25C4.58301 32.6834 7.31634 35.4167 14.9997 35.4167H24.9997C32.683 35.4167 35.4163 32.6834 35.4163 25V15C35.4163 7.31671 32.683 4.58337 24.9997 4.58337H14.9997Z" fill="url(#paint2_linear_613_223)"/>
<defs>
<linearGradient id="paint0_linear_613_223" x1="13.7168" y1="13.746" x2="13.7168" y2="26.2501" gradientUnits="userSpaceOnUse">
<stop stop-color="#BD3ECD"/>
<stop offset="1" stop-color="#B24093"/>
</linearGradient>
<linearGradient id="paint1_linear_613_223" x1="25.0003" y1="23.75" x2="25.0003" y2="26.25" gradientUnits="userSpaceOnUse">
<stop stop-color="#BD3ECD"/>
<stop offset="1" stop-color="#B24093"/>
</linearGradient>
<linearGradient id="paint2_linear_613_223" x1="19.9997" y1="2.08337" x2="19.9997" y2="37.9167" gradientUnits="userSpaceOnUse">
<stop stop-color="#BD3ECD"/>
<stop offset="1" stop-color="#B24093"/>
</linearGradient>
</defs>
</svg>
