<svg width="70" height="70" viewBox="0 0 70 70" fill="none" xmlns="http://www.w3.org/2000/svg">
<g clip-path="url(#clip0_613_442)">
<path d="M34.664 0.273438C16.9365 0.273439 18.0435 7.96118 18.0435 7.96118L18.0632 15.9256H34.9802V18.3169H11.3439C11.3439 18.3169 0 17.0304 0 34.9177C-1.26437e-06 52.805 9.90119 52.1707 9.90119 52.1707H15.8103V43.8703C15.8103 43.8703 15.4918 33.9691 25.5534 33.9691H42.332C42.332 33.9691 51.7589 34.1215 51.7589 24.8584V9.54221C51.7589 9.54221 53.1902 0.273438 34.664 0.273438ZM25.336 5.62917C27.0191 5.62917 28.3794 6.98953 28.3794 8.67265C28.3794 10.3558 27.0191 11.7161 25.336 11.7161C23.6528 11.7161 22.2925 10.3558 22.2925 8.67265C22.2925 6.98953 23.6528 5.62917 25.336 5.62917Z" fill="#BD3ECD"/>
<path d="M35.1674 69.7413C52.8949 69.7413 51.7879 62.0536 51.7879 62.0536L51.7682 54.0892H34.8512V51.6978H58.4875C58.4875 51.6978 69.8314 52.9843 69.8314 35.0971C69.8314 17.2098 59.9302 17.8441 59.9302 17.8441H54.0211V26.1445C54.0211 26.1445 54.3396 36.0457 44.278 36.0457H27.4994C27.4994 36.0457 18.0725 35.8933 18.0725 45.1563V60.4725C18.0725 60.4725 16.6412 69.7413 35.1674 69.7413ZM44.4954 64.3856C42.8123 64.3856 41.452 63.0252 41.452 61.3421C41.452 59.659 42.8123 58.2986 44.4954 58.2986C46.1786 58.2986 47.5389 59.659 47.5389 61.3421C47.5389 63.0252 46.1786 64.3856 44.4954 64.3856Z" fill="#B24093"/>
</g>
<defs>
<clipPath id="clip0_613_442">
<rect width="70" height="70" fill="white"/>
</clipPath>
</defs>
</svg>
