<svg width="75" height="75" viewBox="0 0 75 75" fill="none" xmlns="http://www.w3.org/2000/svg">
<path fill-rule="evenodd" clip-rule="evenodd" d="M66.7113 32.087V29.7385C66.7113 27.1687 64.6089 25.0656 62.0385 25.0656H12.9382C10.3684 25.0656 8.26536 27.1687 8.26536 29.7385V32.087C7.17757 32.7546 6.44531 33.9512 6.44531 35.3141V41.5966C6.44531 42.9596 7.17757 44.1568 8.26536 44.8244V47.2618C8.26536 49.8316 10.3684 51.9346 12.9382 51.9346H62.0385C64.6089 51.9346 66.7113 49.8316 66.7113 47.2618V44.8244C67.7997 44.1568 68.5314 42.9596 68.5314 41.5966V35.3141C68.5314 33.9512 67.7997 32.754 66.7113 32.087V32.087ZM37.6722 0.878906C24.439 0.878906 13.5223 10.7664 11.8873 23.5552H63.457C61.822 10.7664 50.9053 0.878906 37.6722 0.878906V0.878906ZM29.7202 58.4143H45.0709L46.6382 60.2289L48.9958 58.193L46.4967 55.299H28.2938L25.7947 58.193L28.1523 60.2289L29.7202 58.4143V58.4143ZM56.3008 52.8803V62.8199C56.3008 65.5518 54.0653 67.7872 51.3334 67.7872H48.63V67.7775C48.038 67.7775 47.5156 67.5006 47.1673 67.0755H47.1606L43.9281 62.9463L43.9244 62.9493C43.5792 62.5018 43.0447 62.208 42.437 62.2037C42.4327 62.2037 42.4291 62.2025 42.4249 62.2025C42.4212 62.2025 42.4176 62.2037 42.4134 62.2037H33.0543C33.0501 62.2037 33.0465 62.2025 33.0428 62.2025C33.0386 62.2025 33.035 62.2037 33.0307 62.2037C32.4678 62.2073 31.969 62.4607 31.6231 62.8525L31.6164 62.8495L28.3083 67.0755H28.3035C27.9552 67.5006 27.4327 67.7775 26.8408 67.7775V67.7872H24.1349C21.403 67.7872 19.1675 65.5518 19.1675 62.8199V52.8803H13.0967V62.8483C13.0967 68.9192 18.064 73.8865 24.1349 73.8865H51.3353C57.4067 73.8865 62.3735 68.9192 62.3735 62.8483V52.8803H56.3008V52.8803ZM57.5657 41.5306H17.4116C15.5151 41.5306 13.9636 39.979 13.9636 38.0825C13.9636 36.186 15.5151 34.6344 17.4116 34.6344H57.5657C59.4616 34.6344 61.0132 36.186 61.0132 38.0825C61.0132 39.979 59.4616 41.5306 57.5657 41.5306" fill="url(#paint0_linear_652_248)"/>
<defs>
<linearGradient id="paint0_linear_652_248" x1="37.4884" y1="0.878906" x2="37.4884" y2="73.8865" gradientUnits="userSpaceOnUse">
<stop stop-color="#BD3ECD"/>
<stop offset="1" stop-color="#B24093"/>
</linearGradient>
</defs>
</svg>
