<svg width="40" height="40" viewBox="0 0 40 40" fill="none" xmlns="http://www.w3.org/2000/svg">
<path fill-rule="evenodd" clip-rule="evenodd" d="M27.1429 31.4286H35.7143C38.0814 31.4286 40 29.5143 40 27.1429V22.8571V4.28571C40 1.91429 38.0814 0 35.7143 0H4.28571C1.91857 0 0 1.91429 0 4.28571V27.1429C0 29.5143 1.91857 31.4286 4.28571 31.4286H12.8571V37.1429H11.4286C10.64 37.1429 10 37.7857 10 38.5714C10 39.3571 10.64 40 11.4286 40H28.5714C29.36 40 30 39.3571 30 38.5714C30 37.7857 29.36 37.1429 28.5714 37.1429H27.1429V31.4286ZM37.1429 27.1429V24.2857H2.85714V27.1429C2.85714 27.9286 3.49714 28.5714 4.28571 28.5714H35.7143C36.5029 28.5714 37.1429 27.9286 37.1429 27.1429ZM24.2857 31.4286H15.7143V37.1429H24.2857V31.4286ZM2.85714 4.28571V21.4286H37.1429V4.28571C37.1429 3.5 36.5029 2.85714 35.7143 2.85714H4.28571C3.49714 2.85714 2.85714 3.5 2.85714 4.28571Z" fill="url(#paint0_linear_613_218)"/>
<defs>
<linearGradient id="paint0_linear_613_218" x1="20" y1="0" x2="20" y2="40" gradientUnits="userSpaceOnUse">
<stop stop-color="#BD3ECD"/>
<stop offset="1" stop-color="#B24093"/>
</linearGradient>
</defs>
</svg>
