<svg width="95" height="80" viewBox="0 0 95 80" fill="none" xmlns="http://www.w3.org/2000/svg">
<path d="M78.1091 25.9295C77.1236 25.6084 76.1024 25.3047 75.0509 25.0174C75.2237 24.3498 75.3823 23.6909 75.5234 23.0432C77.8383 12.4074 76.3247 3.83909 71.1562 1.01805C66.2003 -1.68695 58.0952 1.13345 49.9095 7.87603C49.1223 8.52439 48.333 9.21085 47.544 9.93027C47.0182 9.45428 46.4934 8.9943 45.9698 8.55432C37.3909 1.34472 28.7919 -1.69351 23.6285 1.13569C18.6773 3.84854 17.211 11.9035 19.2948 21.9831C19.4961 22.9567 19.7313 23.951 19.9973 24.9618C18.7803 25.2888 17.6054 25.6374 16.4812 26.0082C6.42338 29.3272 0 34.5288 0 39.9243C0 45.4967 6.89551 51.086 17.3715 54.475C18.1982 54.7425 19.0561 54.9954 19.9401 55.2354C19.6532 56.3287 19.4036 57.4001 19.1941 58.4451C17.2071 68.3498 18.7588 76.2144 23.6968 78.9102C28.7973 81.6941 37.3575 78.8325 45.6928 71.9363C46.3517 71.3912 47.0128 70.8131 47.6752 70.2071C48.5337 70.9896 49.3909 71.7302 50.2435 72.4248C58.3172 79.0007 66.2914 81.6561 71.2249 78.9529C76.3203 76.161 77.9763 67.7124 75.8264 57.4334C75.6622 56.6483 75.4711 55.8463 75.2565 55.0301C75.8577 54.8619 76.4478 54.6882 77.0233 54.5077C87.9141 51.0924 95 45.5711 95 39.9243C95 34.5093 88.3695 29.2726 78.1091 25.9295ZM75.7469 50.8616C75.2275 51.0244 74.6945 51.1817 74.1513 51.3342C72.949 47.7317 71.3263 43.9009 69.3406 39.943C71.2355 36.0794 72.7955 32.2976 73.9641 28.7184C74.9359 28.9845 75.8792 29.2653 76.7881 29.5615C85.5792 32.4259 90.9416 36.661 90.9416 39.9243C90.9416 43.4002 85.1503 47.9125 75.7469 50.8616ZM71.8451 58.1794C72.7958 62.7246 72.9316 66.8341 72.3019 70.0466C71.7361 72.9333 70.5982 74.8579 69.1913 75.6287C66.1974 77.2689 59.795 75.1368 52.8902 69.513C52.0986 68.8683 51.3013 68.1799 50.5015 67.4514C53.1783 64.6805 55.8536 61.4591 58.4647 57.8815C63.0573 57.4958 67.3962 56.8652 71.3309 56.0043C71.5247 56.7442 71.6968 57.4699 71.8451 58.1794ZM32.3876 75.3452C29.4626 76.323 27.1329 76.351 25.7246 75.5824C22.7281 73.9465 21.4823 67.6319 23.1816 59.1614C23.3762 58.1914 23.6079 57.1949 23.8749 56.1764C27.7665 56.9909 32.0736 57.577 36.6772 57.9302C39.3058 61.431 42.0584 64.6488 44.8323 67.4663C44.2262 68.0201 43.6226 68.5472 43.0223 69.044C39.3364 72.0935 35.6428 74.257 32.3876 75.3452ZM18.6841 50.8403C14.0518 49.3418 10.2262 47.3941 7.60403 45.2688C5.24781 43.3589 4.0582 41.4628 4.0582 39.9243C4.0582 36.6501 9.21554 32.4739 17.8171 29.6355C18.8608 29.291 19.9533 28.9664 21.0871 28.6615C22.2759 32.3216 23.8353 36.1482 25.7172 40.0177C23.811 43.9447 22.2294 47.8323 21.0289 51.5352C20.2207 51.3153 19.4376 51.0839 18.6841 50.8403ZM23.2776 21.2455C21.4923 12.6095 22.678 6.09484 25.6617 4.46009C28.84 2.71858 35.8679 5.2016 43.2751 11.4267C43.7485 11.8246 44.2239 12.2411 44.7006 12.6719C41.9404 15.4771 39.213 18.6708 36.6077 22.1509C32.1397 22.5428 27.8629 23.1725 23.9307 24.0156C23.6835 23.0744 23.4645 22.1496 23.2776 21.2455ZM64.2563 30.8227C63.3163 29.2859 62.3513 27.7854 61.3675 26.3259C64.3985 26.6886 67.3026 27.17 70.0299 27.7592C69.2111 30.2428 68.1906 32.8396 66.9893 35.5018C66.1276 33.9533 65.2161 32.392 64.2563 30.8227ZM47.5453 15.4171C49.4172 17.3366 51.2919 19.4796 53.1357 21.8049C51.2777 21.7218 49.3966 21.6786 47.5 21.6786C45.6213 21.6786 43.7541 21.7208 41.9076 21.8025C43.7533 19.4989 45.6441 17.3587 47.5453 15.4171ZM30.7273 30.8493C29.7883 32.3904 28.8937 33.9432 28.0455 35.4989C26.8637 32.8461 25.8527 30.2374 25.0268 27.7185C27.7373 27.1444 30.6277 26.675 33.6395 26.3192C32.6418 27.7922 31.6688 29.3037 30.7273 30.8489V30.8493ZM33.7262 53.8033C30.6145 53.4747 27.6806 53.0295 24.9708 52.4712C25.8099 49.9074 26.8432 47.243 28.0501 44.5331C28.9005 46.0876 29.7986 47.6411 30.7433 49.1855H30.7435C31.7058 50.759 32.7028 52.3003 33.7262 53.8033ZM47.6576 64.7022C45.7341 62.7379 43.8155 60.5651 41.9417 58.2279C43.7607 58.2954 45.6152 58.33 47.5 58.33C49.4363 58.33 51.3505 58.2887 53.2346 58.2093C51.3847 60.5886 49.5168 62.7648 47.6576 64.7022ZM67.028 44.3949C68.2978 47.1342 69.3682 49.7846 70.2181 52.3048C67.4636 52.8995 64.4897 53.3785 61.3563 53.7345C62.3425 52.2553 63.316 50.7291 64.2726 49.1591C65.2403 47.5708 66.1592 45.9801 67.028 44.3949ZM60.7572 47.2401C59.2721 49.6772 57.7476 52.0037 56.1998 54.1997C53.3807 54.3905 50.4684 54.4888 47.5 54.4888C44.5436 54.4888 41.668 54.4019 38.8988 54.2318C37.2886 52.0069 35.7309 49.6735 34.2553 47.2611H34.2557C32.784 44.8552 31.4295 42.429 30.2022 40.0164C31.4292 37.5983 32.7801 35.1693 34.2433 32.7678L34.243 32.7683C35.7101 30.3603 37.2541 28.0383 38.8494 25.8274C41.6747 25.6252 44.5719 25.5198 47.4998 25.5198H47.5C50.4411 25.5198 53.342 25.626 56.1665 25.8299C57.7374 28.0247 59.271 30.3392 60.7438 32.7475C62.2334 35.1828 63.6018 37.5955 64.8392 39.9619C63.6055 42.3689 62.2402 44.8059 60.7572 47.2401ZM69.1291 4.34581C72.3103 6.08219 73.5475 13.085 71.5487 22.2679C71.4212 22.8538 71.2776 23.4506 71.1217 24.0555C67.1804 23.1947 62.9005 22.5542 58.4195 22.1563C55.8092 18.6379 53.1041 15.4393 50.3889 12.6702C51.1189 12.0055 51.8479 11.3717 52.5738 10.7736C59.5873 4.99657 66.1425 2.7157 69.1291 4.34581ZM47.5 31.895C52.185 31.895 55.9832 35.4898 55.9832 39.9243C55.9832 44.3586 52.185 47.9535 47.5 47.9535C42.8149 47.9535 39.0168 44.3586 39.0168 39.9243C39.0168 35.4898 42.8149 31.895 47.5 31.895Z" fill="url(#paint0_linear_652_264)"/>
<defs>
<linearGradient id="paint0_linear_652_264" x1="19.5" y1="7" x2="73.5" y2="76" gradientUnits="userSpaceOnUse">
<stop stop-color="#BD3ECD"/>
<stop offset="1" stop-color="#B24093"/>
</linearGradient>
</defs>
</svg>
