<svg width="1920" height="721" viewBox="0 0 1920 721" fill="none" xmlns="http://www.w3.org/2000/svg">
<g opacity="0.89">
<path style="mix-blend-mode:lighten" fill-rule="evenodd" clip-rule="evenodd" d="M1223.55 0L1223.99 0.186L1452.85 98.246L1453.28 98.433L1453.71 98.619L1682.15 196.494L1682.59 196.68L1683.02 196.866L1910.58 294.369L1911.01 294.183L1911.46 293.997L1911.89 294.183L2141.18 392.43L2141.61 392.616L2141.18 392.802L1911.89 491.049L1911.46 491.235L2139.61 588.991L2140.04 589.177L2140.47 589.362L2140.75 589.482L2369.61 491.421L2370.05 491.235L2370.49 491.421L2599.35 589.482L2599.79 589.668L2600.22 589.854L2828.65 687.729L2829.08 687.915L2829.53 688.101L3058.39 786.162L3058.82 786.348L3058.39 786.534L2829.08 884.781L2828.65 884.967L2828.22 884.781L2827.5 884.476L2599.07 982.35L2598.64 982.536L2598.21 982.722L2369.35 1080.78L2368.9 1080.97L2368.47 1080.78L2368.16 1080.65L2139.44 1178.64L2139.01 1178.83L2138.58 1178.64L2137.87 1178.34L1909.43 1276.21L1909 1276.4L1908.57 1276.58L1679.71 1374.65L1679.26 1374.83L1678.83 1374.65L1449.97 1276.58L1449.54 1276.4L1449.11 1276.21L1220.67 1178.34L1220.23 1178.15L1219.8 1177.97L991.368 1080.09L990.934 1079.9L990.5 1079.72L762.069 981.843L761.635 981.657L761.199 981.471L532.768 883.596L532.334 883.41L531.9 883.224L303.467 785.349L303.034 785.163L302.6 784.977L74.1669 687.102L73.7344 686.917L73.3005 686.731L-155.566 588.669L-156 588.483L-155.566 588.297L73.3005 490.236L73.7344 490.05L74.1682 489.864L303.034 391.803L303.467 391.618L303.903 391.803L304.615 392.109L533.481 294.048L533.915 293.862L534.349 294.048L534.662 294.182L762.938 196.375L763.371 196.189L763.805 196.003L992.672 97.942L993.106 97.756L993.54 97.942L994.252 98.247L1223.12 0.186L1223.55 0ZM763.963 392.429L763.649 392.295L763.215 392.109L535.53 294.554L763.805 196.747L992.238 294.622L763.963 392.429ZM993.262 490.676L992.948 490.542L992.514 490.356L764.831 392.801L993.106 294.994L1221.54 392.869L993.262 490.676ZM1222.56 588.923L1222.25 588.789L1221.81 588.603L994.13 491.048L1222.41 393.241L1450.83 491.115L1222.56 588.923ZM1451.87 687.17L1451.55 687.036L1451.11 686.85L1223.43 589.295L1451.71 491.488L1680.14 589.362L1451.87 687.17ZM1681.16 785.417L1680.85 785.283L1680.41 785.097L1452.73 687.542L1681 589.734L1909.43 687.609L1681.16 785.417ZM1910.46 883.664L1910.15 883.53L1909.72 883.344L1682.03 785.789L1910.31 687.981L2138.74 785.856L1910.46 883.664ZM2139.77 981.911L2139.44 981.777L2139.01 981.591L1911.33 884.036L2139.61 786.229L2368.04 884.104L2139.77 981.911ZM2369.06 1080.16L2368.75 1080.02L2140.63 982.283L2368.9 884.475L2597.33 982.35L2369.06 1080.16ZM533.758 294.673L305.483 392.481L532.768 489.864L533.202 490.05L533.564 490.206L533.636 490.236L533.915 490.356L762.19 392.548L534.072 294.808L533.758 294.673ZM763.057 392.92L534.782 490.728L762.069 588.112L762.502 588.298L762.936 588.483L763.215 588.603L991.49 490.795L763.805 393.241L763.371 393.055L763.057 392.92ZM992.358 491.167L764.083 588.975L991.368 686.359L991.803 686.545L992.237 686.731L992.514 686.85L1220.79 589.042L993.106 491.488L992.672 491.301L992.358 491.167ZM1221.66 589.414L993.382 687.222L1220.67 784.605L1221.1 784.792L1221.54 784.977L1221.81 785.097L1450.09 687.289L1222.41 589.734L1221.97 589.548L1221.66 589.414ZM1450.95 687.661L1222.68 785.469L1449.97 882.853L1450.4 883.038L1450.83 883.224L1451.11 883.344L1679.39 785.536L1451.71 687.981L1451.28 687.795L1450.95 687.661ZM1680.26 785.908L1451.98 883.716L1679.26 981.099L1679.71 981.285L1680.14 981.472L1680.41 981.591L1908.69 883.783L1681 786.228L1680.57 786.042L1680.26 785.908ZM1909.56 884.155L1681.28 981.963L1908.57 1079.35L1909 1079.53L1909.43 1079.72L1909.72 1079.84L2137.99 982.03L1910.31 884.475L1909.87 884.289L1909.56 884.155ZM2138.85 982.402L1910.58 1080.21L2138.3 1177.78L2138.74 1177.97L2139.01 1178.08L2367.28 1080.28L2139.61 982.722L2139.17 982.536L2138.85 982.402ZM2826.64 884.104L2598.21 981.979L2369.78 884.104L2598.21 786.229L2598.48 786.348L2598.92 786.534L2599.35 786.72L2826.64 884.104ZM2368.9 883.731L2597.33 785.856L2370.05 688.473L2369.61 688.287L2369.18 688.101L2368.9 687.982L2140.47 785.856L2368.9 883.731ZM2598.21 785.485L2598.64 785.67L2599.07 785.856L2599.35 785.976L2827.79 688.101L2599.35 590.226L2370.92 688.101L2598.21 785.485ZM2600.22 786.348L2827.94 883.918L2828.38 884.104L2828.65 884.223L3057.08 786.348L2828.65 688.473L2600.22 786.348ZM2139.61 785.485L1911.17 687.609L2139.61 589.735L2139.89 589.854L2140.32 590.04L2368.04 687.61L2139.61 785.485ZM2598.48 589.854L2370.05 687.729L2369.78 687.61L2369.35 687.424L2368.9 687.237L2141.63 589.854L2370.05 491.979L2598.48 589.854ZM2138.74 589.362L1910.31 687.238L1681.88 589.362L1910.31 491.487L2138.74 589.362ZM1681 588.991L1452.57 491.116L1634.28 413.261L1681 393.241L1681.72 393.546L1682.15 393.732L1909.43 491.116L1681 588.991ZM1451.71 490.744L1223.27 392.869L1451.71 294.994L1451.99 295.113L1452.42 295.299L1452.85 295.485L1680.14 392.869L1451.71 490.744ZM1681.72 392.43L1681.28 392.616L1681 392.497L1453.71 295.113L1682.15 197.238L1909.72 294.741L1681.72 392.43ZM1683.89 392.988L1911.46 490.491L2139.89 392.616L1912.32 295.113L1911.89 295.299L1683.89 392.988ZM1221.54 196.375L993.106 294.25L764.674 196.375L993.106 98.5L993.385 98.619L993.818 98.805L1221.54 196.375ZM995.12 98.619L1222.41 196.003L1222.84 196.189L1223.27 196.375L1223.55 196.494L1451.99 98.619L1223.55 0.744L995.12 98.619ZM1222.41 196.747L993.974 294.622L1222.41 392.496L1402.03 315.533L1450.83 294.622L1223.55 197.238L1223.12 197.052L1222.68 196.866L1222.41 196.747ZM1224.42 196.866L1452.85 98.991L1681.28 196.866L1452.85 294.741L1452.57 294.622L1452.14 294.436L1451.71 294.25L1224.42 196.866ZM1678.4 1177.97L1449.97 1275.84L1221.54 1177.97L1449.97 1080.09L1678.4 1177.97ZM1908.57 1275.84L1680.14 1177.97L1908.57 1080.09L1908.84 1080.21L1909.27 1080.4H1909.29L1909.72 1080.58L2137.01 1177.97L1908.57 1275.84ZM1450.83 1079.72L1679.26 1177.59L1907.7 1079.72L1680.41 982.335L1679.98 982.149L1679.55 981.963L1679.26 981.843L1450.83 1079.72ZM1679.26 1374.09L1450.83 1276.21L1679.26 1178.34L1907.7 1276.21L1679.26 1374.09ZM1449.97 1079.35L1678.4 981.472L1451.11 884.088L1450.68 883.902L1450.25 883.716L1449.97 883.596L1221.54 981.471L1449.97 1079.35ZM1220.67 1177.59L1449.11 1079.72L1220.67 981.843L992.237 1079.72L1220.67 1177.59ZM1219.8 981.471L991.368 1079.35L762.936 981.471L991.368 883.596L1219.8 981.471ZM992.237 883.224L1220.67 981.099L1449.11 883.224L1221.81 785.841L1221.38 785.655L1220.95 785.469L1220.67 785.349L992.237 883.224ZM991.368 882.852L1219.8 784.977L992.514 687.594L992.08 687.408L991.647 687.222L991.368 687.103L917.508 718.749L762.936 784.977L991.368 882.852ZM762.069 981.099L990.5 883.224L762.069 785.349L533.637 883.224L762.069 981.099ZM761.199 784.977L532.768 882.852L304.336 784.977L532.768 687.102L761.199 784.977ZM533.637 686.731L762.069 784.606L990.5 686.731L763.215 589.347L762.78 589.161L762.346 588.975L762.069 588.855L533.637 686.731ZM75.0359 686.731L303.467 784.606L531.9 686.731L303.467 588.855L75.0359 686.731ZM303.467 588.112L531.9 490.237L304.18 392.667L303.746 392.481L303.467 392.361L75.0359 490.236L303.467 588.112ZM74.1682 686.358L302.6 588.483L74.1669 490.608L-154.263 588.483L74.1682 686.358ZM304.336 588.483L532.768 490.608L533.047 490.728L533.481 490.914L533.915 491.1L761.199 588.484L532.768 686.359V686.358L304.336 588.483Z" fill="url(#paint0_linear_165_172)"/>
<path opacity="0.12" d="M1237.84 470.379C1226.73 465.619 1208.55 465.619 1197.44 470.379C1186.33 475.139 1186.33 482.929 1197.44 487.69C1208.55 492.45 1226.73 492.45 1237.84 487.69C1248.95 482.929 1248.95 475.139 1237.84 470.379ZM1195.13 479.034C1195.13 476.438 1197.58 474.027 1201.48 472.357L1201.62 485.773C1197.73 483.98 1195.13 481.631 1195.13 479.034ZM1205.66 487.133V470.936C1214.32 468.586 1226.01 469.019 1233.51 472.234C1238.85 474.521 1240.87 477.612 1239.86 480.518L1235.82 480.394C1236.69 477.921 1234.95 475.325 1230.62 473.47C1225 471.059 1216.63 470.565 1209.7 471.925V486.144C1215.33 487.319 1222.11 487.133 1227.45 485.711L1220.53 482.744L1223.41 481.507L1233.51 485.835C1226.01 489.05 1214.32 489.482 1205.66 487.133Z" fill="white"/>
<path opacity="0.2" d="M1669.7 670.405L1688.13 678.303L1686.67 678.931L1669.93 671.757L1658.89 676.482L1674.64 683.228L1673.17 683.856L1657.44 677.11L1645.32 682.297L1662.26 689.553L1660.79 690.181L1642.17 682.2L1669.7 670.405ZM1689.79 679.011L1691.74 679.85L1688.32 688.756L1709.3 687.37L1736.74 685.951L1688.16 689.778L1684.22 700.218L1682.19 699.346L1685.77 689.846L1663.57 691.366L1661.56 690.51L1686 688.857L1689.79 679.011ZM1711.02 689.363L1712.48 688.736L1733.48 697.736L1732.03 698.364L1722.34 694.217L1696.28 705.385L1694.6 704.661L1720.65 693.493L1711.02 689.363ZM1646.64 660.524L1648.75 661.429L1634.29 692.583L1638.32 680.547L1646.32 662.173L1620.8 673.044L1619.1 672.32L1646.64 660.524ZM1707.69 708.641C1707.36 708.493 1707.36 708.268 1707.71 708.119C1707.89 708.046 1708.1 708.007 1708.31 708.007C1708.52 708.006 1708.73 708.044 1708.92 708.116C1709.27 708.265 1709.26 708.489 1708.92 708.637C1708.73 708.711 1708.52 708.75 1708.31 708.751C1708.09 708.751 1707.88 708.714 1707.69 708.641ZM1710.97 708.661L1711.87 709.049C1711.4 709.264 1711.43 709.558 1711.95 709.783C1712.54 710.035 1713.23 710.026 1713.89 709.742L1718.08 707.944L1719.01 708.338L1714.81 710.139C1713.61 710.65 1712.23 710.649 1711.09 710.159C1710.01 709.699 1709.94 709.099 1710.97 708.661ZM1715.87 710.714L1716.77 711.105C1716.29 711.38 1716.49 711.77 1717.29 712.11C1718.01 712.427 1718.94 712.495 1719.47 712.269C1719.93 712.075 1719.85 711.811 1719.25 711.395L1718.67 710.989C1717.85 710.421 1717.88 709.99 1718.75 709.616C1719.81 709.163 1721.38 709.231 1722.68 709.786C1723.87 710.302 1724.05 710.98 1723.11 711.431L1722.2 711.048C1722.68 710.776 1722.54 710.425 1721.84 710.13C1721.11 709.818 1720.28 709.76 1719.75 709.989C1719.32 710.171 1719.39 710.409 1719.98 710.817L1720.48 711.166C1721.41 711.809 1721.42 712.235 1720.52 712.618C1719.39 713.105 1717.8 713.033 1716.4 712.431C1715.08 711.867 1714.87 711.198 1715.87 710.714Z" fill="white"/>
<g opacity="0.2">
<path fill-rule="evenodd" clip-rule="evenodd" d="M1683.56 464.343L1689.21 461.928L1704.49 475.731L1669.47 487.631L1638.2 483.785L1657.73 475.414L1664 478.102L1659.54 482.572L1665.08 484.943L1683.56 464.343ZM1662.31 473.447L1672.76 468.977L1666.65 475.304L1662.31 473.447Z" fill="white"/>
<path fill-rule="evenodd" clip-rule="evenodd" d="M1683.58 464.344L1689.21 461.929L1656.99 455.383L1629.22 470.388L1638.2 483.786L1657.73 475.414L1651.4 472.704L1640.97 474.617L1635.43 472.245L1683.58 464.344ZM1672.76 468.978L1657.99 471.59L1662.33 473.447L1672.76 468.978Z" fill="white" fill-opacity="0.6"/>
</g>
<g opacity="0.2">
<path opacity="0.9" fill-rule="evenodd" clip-rule="evenodd" d="M1424.96 391.819L1441.93 364.509L1451.17 368.468L1441.1 384.904L1479.36 380.544L1488.71 384.553L1424.96 391.819Z" fill="white"/>
<path opacity="0.9" d="M1442.67 384.238L1452.84 367.752L1461.49 371.46L1457.64 377.824L1472.36 376.12L1481.03 379.828L1442.67 384.238Z" fill="white" fill-opacity="0.4"/>
</g>
<path opacity="0.21" d="M1892.89 575.629L1913.06 551.598C1913.56 550.994 1913.25 550.32 1912.25 549.844C1911.25 549.359 1909.73 549.151 1908.26 549.302L1857.25 554.473C1855.67 554.63 1854.45 555.165 1854.11 555.844L1848.9 566.241C1848.49 567.045 1849.38 567.865 1851.07 568.256L1886.87 576.593C1887.96 576.848 1889.25 576.889 1890.41 576.704C1891.57 576.519 1892.47 576.126 1892.89 575.629ZM1887.23 574.607L1856.85 567.532C1855.93 567.316 1855.86 566.757 1856.73 566.511L1905.22 552.915C1906.12 552.661 1907.28 553.054 1906.92 553.492L1889.48 574.245C1889.33 574.431 1888.98 574.579 1888.55 574.649C1888.12 574.718 1887.63 574.703 1887.23 574.607Z" fill="white"/>
<path opacity="0.3" d="M1476.75 594.997C1476.38 594.669 1475.99 594.35 1475.58 594.039C1476.08 593.912 1476.55 593.784 1477.01 593.655C1484.54 591.53 1488.73 589.013 1487.52 587.072C1486.35 585.211 1480.19 583.99 1471.68 583.738C1470.87 583.713 1470.02 583.698 1469.16 583.691C1469.15 583.45 1469.12 583.209 1469.09 582.97C1468.55 579.112 1465.56 576.3 1461.03 575.782C1456.68 575.285 1451.14 576.963 1446.37 579.996C1445.91 580.289 1445.47 580.595 1445.01 580.913C1444.15 580.705 1443.29 580.513 1442.45 580.339C1434.91 578.778 1428.28 578.557 1425.11 579.915C1421.84 581.317 1422.39 584.366 1426.23 587.714C1426.52 587.978 1426.85 588.246 1427.2 588.517C1426.4 588.724 1425.64 588.934 1424.91 589.147C1417.98 591.166 1414.22 593.515 1415.4 595.369C1416.59 597.284 1423.04 598.603 1431.71 598.853C1432.4 598.873 1433.1 598.885 1433.83 598.89C1433.84 599.291 1433.9 599.682 1433.95 600.06C1434.58 603.638 1437.45 606.205 1441.78 606.7C1446.25 607.211 1452.14 605.479 1456.98 602.381C1457.35 602.144 1457.72 601.897 1458.08 601.64C1458.51 601.741 1458.94 601.838 1459.36 601.929C1467.42 603.664 1474.6 603.962 1477.93 602.541C1481.11 601.179 1480.49 598.282 1476.75 594.997ZM1460.8 600.708C1460.41 600.625 1460.02 600.538 1459.63 600.447C1461.13 599.205 1462.48 597.862 1463.64 596.435C1466.97 595.914 1470.06 595.334 1472.81 594.711C1473.2 595.01 1473.55 595.305 1473.88 595.596C1477.09 598.411 1477.58 600.753 1475.66 601.575C1473.63 602.449 1467.75 602.205 1460.8 600.708ZM1454.33 601.62C1452.19 602.99 1449.85 604.057 1447.61 604.715C1445.6 605.307 1443.84 605.52 1442.61 605.379C1439.97 605.078 1437.67 603.017 1437.14 599.958C1437.07 599.597 1437.03 599.234 1437.02 598.87C1440.13 598.81 1443.52 598.637 1447.07 598.358C1449.76 599.328 1452.51 600.193 1455.32 600.95C1454.99 601.183 1454.66 601.406 1454.33 601.62ZM1422.31 596.542C1420.11 596.091 1418.8 595.544 1418.47 595.015C1417.77 593.889 1420.79 592.004 1426.7 590.277C1427.37 590.079 1428.09 589.884 1428.84 589.691C1430.53 590.823 1432.57 591.996 1434.93 593.181C1434.36 594.594 1433.99 596.05 1433.85 597.523C1433.19 597.518 1432.55 597.507 1431.93 597.489C1428.09 597.379 1424.76 597.043 1422.31 596.542ZM1429.08 587.112C1427.39 585.632 1426.42 584.23 1426.2 583.071C1426.01 582.029 1426.47 581.269 1427.37 580.882C1429.29 580.058 1434.61 580.235 1441.06 581.57C1441.84 581.731 1442.64 581.91 1443.45 582.103C1441.93 583.335 1440.56 584.66 1439.35 586.064C1436.2 586.558 1433.07 587.152 1429.99 587.845C1429.66 587.597 1429.37 587.353 1429.08 587.112ZM1449.03 580.759C1453.11 578.16 1457.58 576.804 1460.21 577.103C1463 577.422 1465.45 579.72 1465.91 583.051C1465.94 583.264 1465.95 583.482 1465.96 583.704C1462.6 583.76 1459.24 583.913 1455.9 584.161C1453.24 583.213 1450.53 582.362 1447.76 581.611C1448.18 581.316 1448.59 581.031 1449.03 580.759ZM1466.18 592.929C1466.56 592.318 1466.91 591.711 1467.22 591.109C1468.68 591.922 1470.02 592.735 1471.19 593.533C1469.28 593.963 1467.18 594.373 1464.95 594.757C1465.38 594.162 1465.79 593.552 1466.18 592.929ZM1465.94 585.072C1465.85 586.001 1465.63 586.987 1465.29 588.011C1463.26 587.056 1461.18 586.164 1459.05 585.336C1461.44 585.196 1463.74 585.108 1465.94 585.072ZM1447.52 584.95C1446.1 585.114 1444.69 585.292 1443.3 585.481C1444.2 584.532 1445.17 583.635 1446.2 582.804C1448.04 583.305 1449.92 583.876 1451.8 584.503C1450.39 584.636 1448.96 584.785 1447.52 584.95ZM1435.71 591.44C1434.3 590.688 1432.93 589.88 1431.63 589.02C1433.74 588.547 1435.86 588.125 1438 587.755C1437.56 588.349 1437.14 588.954 1436.76 589.568C1436.37 590.193 1436.02 590.818 1435.71 591.44ZM1437.05 597.501C1437.14 596.548 1437.34 595.545 1437.68 594.51C1439.73 595.459 1441.83 596.355 1443.96 597.195C1441.53 597.353 1439.23 597.456 1437.05 597.501ZM1459.75 597.004C1458.85 597.996 1457.88 598.918 1456.88 599.754C1454.93 599.228 1453 598.644 1451.11 598.003C1452.53 597.866 1453.96 597.714 1455.41 597.547C1456.89 597.378 1458.34 597.196 1459.75 597.004ZM1454.59 596.227C1452.33 596.486 1450.12 596.708 1447.97 596.892C1444.65 595.661 1441.43 594.288 1438.33 592.78C1438.75 591.836 1439.24 590.878 1439.85 589.92C1440.44 588.964 1441.12 588.031 1441.84 587.131C1443.95 586.815 1446.13 586.526 1448.35 586.27C1450.58 586.013 1452.8 585.797 1454.98 585.621C1458.31 586.836 1461.53 588.214 1464.62 589.746C1464.18 590.709 1463.67 591.654 1463.09 592.576C1462.49 593.544 1461.84 594.477 1461.14 595.367C1459.04 595.679 1456.84 595.967 1454.59 596.227ZM1484.43 587.427C1485.19 588.621 1481.75 590.678 1475.26 592.513C1474.84 592.63 1474.41 592.746 1473.97 592.861C1472.28 591.706 1470.27 590.525 1468.02 589.358C1468.64 587.851 1469.01 586.402 1469.13 585.058C1469.92 585.065 1470.71 585.079 1471.46 585.101C1478.75 585.318 1483.73 586.305 1484.43 587.427ZM1456.23 589.208C1458.83 590.323 1458.83 592.133 1456.23 593.249C1453.63 594.364 1449.4 594.364 1446.8 593.249C1444.2 592.133 1444.2 590.324 1446.8 589.208C1449.4 588.092 1453.63 588.092 1456.23 589.208Z" fill="white"/>
<g opacity="0.1">
<path fill-rule="evenodd" clip-rule="evenodd" d="M1193.47 690.693L1193.58 690.552C1193.8 690.272 1194.24 690.084 1194.89 689.897L1183.1 684.842L1231.6 679.038L1225.7 687.838L1229.85 688.118L1235.75 679.318C1235.86 679.178 1236.3 678.242 1234.88 677.633C1234.22 677.353 1233.02 677.025 1230.84 677.306L1181.78 683.157C1181.35 683.25 1179.16 683.531 1178.62 684.327C1178.4 684.795 1178.4 685.357 1179.93 686.012L1194.79 692.378C1193.26 691.723 1193.15 691.114 1193.47 690.693Z" fill="white" fill-opacity="0.6"/>
<path fill-rule="evenodd" clip-rule="evenodd" d="M1229.96 703.894L1241.33 686.856C1241.33 686.669 1241.98 685.733 1240.56 685.124C1239.91 684.843 1238.59 684.562 1236.52 684.796L1231.6 685.311L1225.7 687.839L1237.28 686.528L1226.25 703.332L1220.9 701.039C1220.47 701.3 1219.86 701.496 1219.15 701.6H1218.93C1217.07 701.834 1215.33 701.179 1215.11 701.085L1223.41 704.643C1223.74 704.783 1225.38 705.392 1227.34 705.205C1228.22 705.111 1229.42 704.783 1229.96 703.894Z" fill="white" fill-opacity="0.2"/>
<path d="M1219.37 701.786L1219.48 701.74L1219.8 701.693C1220.35 701.552 1220.9 701.412 1221.23 701.178L1222.1 700.429L1230.4 687.323L1231.71 685.357L1231.6 685.31L1227.02 685.872L1196.43 689.429L1194.68 689.804C1194.02 689.996 1193.52 690.275 1193.26 690.599C1193.04 691.067 1193.04 691.629 1194.57 692.284L1215.33 701.178C1215.65 701.318 1217.4 701.974 1219.37 701.786ZM1225.7 687.838L1218.06 699.82L1197.74 691.114L1225.7 687.838Z" fill="white"/>
</g>
<path opacity="0.1" fill-rule="evenodd" clip-rule="evenodd" d="M973.464 565.725L1018.69 585.104L973.464 604.483L928.235 585.104L973.464 565.725ZM947.559 587.015C946.437 588.355 946.65 589.955 950.049 591.411C953.814 593.025 958.399 593.272 962.801 591.385L977.312 585.168L973.062 583.347L958.61 589.539C956.486 590.449 955.059 590.306 953.662 589.707C952.205 589.083 952.6 588.394 953.116 587.6L947.559 587.015ZM968.51 593.884L963.045 593.259C961.831 594.846 962.498 596.745 966.445 598.437C970.482 600.167 975.583 600.557 979.408 598.918C982.961 597.396 982.505 595.848 980.441 593.636L979.834 592.986C978.802 591.867 978.529 591.308 979.803 590.762C980.835 590.319 982.414 590.319 983.659 590.853C984.873 591.373 985.147 591.932 984.57 592.804L990.004 593.311C991.067 591.659 990.065 590.423 987.363 589.266C983.568 587.64 978.71 587.64 975.523 589.006C972.061 590.489 972.456 592.063 974.217 593.936L974.825 594.586C975.917 595.783 976.555 596.498 975.097 597.123C973.883 597.643 971.879 597.539 970.118 596.785C968.023 595.887 967.933 594.911 968.51 593.884Z" fill="white"/>
<g opacity="0.56">
<g opacity="0.4">
<path d="M1861.19 364.538L1939.87 398.247L1913.64 409.484L1874.31 392.629L1869.93 394.502L1852.45 387.011L1856.82 385.138L1834.97 375.774L1861.19 364.538ZM1843.71 375.774L1852.45 379.52L1865.56 373.901L1869.93 375.774L1856.82 381.393L1861.19 383.265L1878.67 375.774L1861.19 368.283L1843.71 375.774ZM1883.04 377.647L1861.19 387.011L1869.93 390.756L1874.31 388.884L1883.04 392.629L1900.53 385.138L1883.04 377.647ZM1887.42 383.265L1891.78 385.138L1883.04 388.884L1878.67 387.011L1887.42 383.265ZM1904.89 387.011L1887.42 394.502L1896.16 398.247L1909.27 392.629L1913.64 394.502L1900.53 400.12L1904.89 401.993L1918.02 396.375L1922.38 398.247L1909.27 403.866L1913.64 405.738L1931.13 398.247L1904.89 387.011Z" fill="#242424"/>
<path d="M1843.71 375.774L1852.45 379.52L1865.56 373.902L1869.93 375.774L1856.82 381.393L1861.19 383.265L1878.67 375.774L1861.19 368.283L1843.71 375.774ZM1883.04 377.647L1861.19 387.011L1869.93 390.756L1874.31 388.884L1883.04 392.629L1900.53 385.138L1883.04 377.647ZM1883.04 388.884L1878.67 387.011L1887.42 383.265L1891.78 385.138L1883.04 388.884ZM1904.89 387.011L1887.42 394.502L1896.16 398.248L1909.27 392.629L1913.64 394.502L1900.53 400.12L1904.89 401.993L1918.02 396.375L1922.38 398.248L1909.27 403.866L1913.64 405.739L1931.13 398.248L1904.89 387.011Z" fill="white"/>
</g>
</g>
<g opacity="0.56">
<g opacity="0.4">
<path d="M1861.19 364.538L1939.87 398.247L1913.64 409.484L1874.31 392.629L1869.93 394.502L1852.45 387.011L1856.82 385.138L1834.97 375.774L1861.19 364.538ZM1843.71 375.774L1852.45 379.52L1865.56 373.901L1869.93 375.774L1856.82 381.393L1861.19 383.265L1878.67 375.774L1861.19 368.283L1843.71 375.774ZM1883.04 377.647L1861.19 387.011L1869.93 390.756L1874.31 388.884L1883.04 392.629L1900.53 385.138L1883.04 377.647ZM1887.42 383.265L1891.78 385.138L1883.04 388.884L1878.67 387.011L1887.42 383.265ZM1904.89 387.011L1887.42 394.502L1896.16 398.247L1909.27 392.629L1913.64 394.502L1900.53 400.12L1904.89 401.993L1918.02 396.375L1922.38 398.247L1909.27 403.866L1913.64 405.738L1931.13 398.247L1904.89 387.011Z" fill="#242424"/>
</g>
</g>
</g>
<defs>
<linearGradient id="paint0_linear_165_172" x1="1401.69" y1="270.055" x2="1488.67" y2="826.363" gradientUnits="userSpaceOnUse">
<stop offset="0.063" stop-color="white" stop-opacity="0"/>
<stop offset="1" stop-color="white" stop-opacity="0.4"/>
</linearGradient>
</defs>
</svg>
