<svg width="199" height="35" viewBox="0 0 199 35" fill="none" xmlns="http://www.w3.org/2000/svg">
<path d="M23.2316 27.75C24.6816 27 26.4316 27.5 27.2316 28.95C27.9816 30.35 27.4316 32.1 26.0316 32.9C23.4816 34.25 20.6316 35 17.6816 35C8.03164 35 0.181641 27.15 0.181641 17.5C0.181641 7.85 8.03164 -2.38419e-06 17.6816 -2.38419e-06C20.6316 -2.38419e-06 23.4816 0.749997 26.0316 2.1C27.4316 2.9 27.9816 4.65 27.2316 6.05C26.4316 7.5 24.6816 8 23.2316 7.25C21.5816 6.3 19.6316 5.85 17.6816 5.85C11.2816 5.85 6.03164 11.05 6.03164 17.5C6.03164 23.95 11.2816 29.15 17.6816 29.15C19.6316 29.15 21.5816 28.7 23.2316 27.75ZM41.7145 11.65C48.1645 11.65 53.4145 16.9 53.4145 23.35C53.4145 29.75 48.1645 35 41.7145 35C35.3145 35 30.0645 29.75 30.0645 23.35C30.0645 16.9 35.3145 11.65 41.7145 11.65ZM41.7145 29.15C44.9645 29.15 47.5645 26.55 47.5645 23.35C47.5645 20.1 44.9645 17.5 41.7145 17.5C38.5145 17.5 35.9145 20.1 35.9145 23.35C35.9145 26.55 38.5145 29.15 41.7145 29.15ZM66.1582 11.65C67.7582 11.65 69.0582 12.95 69.0582 14.6C69.0582 16.2 67.7582 17.5 66.1582 17.5C65.2082 17.5 63.9582 17.65 63.4582 18.4C63.3082 18.65 63.2582 18.95 63.2582 18.95V32.1C63.2582 33.7 61.9582 35 60.3082 35C58.7082 35 57.4082 33.7 57.4082 32.1V14.6C57.4082 12.95 58.7082 11.65 60.3082 11.65C61.0582 11.65 61.7082 11.9 62.2082 12.35C63.3082 11.9 64.6082 11.65 66.1582 11.65ZM81.6871 35C81.2871 35 80.9871 35 80.7871 34.95C77.7371 34.8 75.0871 33.5 73.2871 31.25C71.6371 29.15 70.7871 26.4 70.7871 23.3C70.7871 16.85 75.3871 11.65 80.9871 11.65C83.7871 11.65 86.3871 12.8 88.2871 14.95C90.1871 17 91.1871 19.8 91.1871 22.8C91.1871 24.4 89.8871 25.75 88.2871 25.75H76.9371C77.4371 27.35 78.5371 29.05 81.0871 29.15H81.3871C82.1371 29.15 83.5371 29.15 84.7871 28.25C85.2871 27.95 85.8371 27.8 86.3871 27.8C87.3371 27.8 88.2871 28.25 88.8371 29.1C89.1871 29.55 89.3371 30.1 89.3371 30.65C89.3371 31.6 88.8371 32.6 87.9871 33.15C85.5871 34.75 83.0871 35 81.6871 35ZM77.4871 19.9H84.7371C83.9871 18.4 82.6371 17.45 80.9871 17.45C79.5871 17.45 78.2871 18.45 77.4871 19.9ZM130.645 0.249997C131.795 0.699998 132.445 1.8 132.445 2.95C132.445 3.3 132.395 3.7 132.245 4.05L120.045 33.2C119.595 34.3 118.545 35 117.395 35C116.195 35 115.145 34.3 114.695 33.2L110.845 23.95L106.945 33.2C106.495 34.3 105.445 35 104.295 35C103.095 35 102.045 34.3 101.595 33.2L89.3953 4.05C89.2453 3.7 89.1953 3.3 89.1953 2.95C89.1953 1.45 90.3953 -2.38419e-06 92.1453 -2.38419e-06C93.2953 -2.38419e-06 94.3453 0.699998 94.7953 1.8L104.295 24.5L107.645 16.35L102.545 4.05C102.395 3.7 102.295 3.3 102.295 2.9C102.295 1.4 103.495 -2.38419e-06 105.245 -2.38419e-06C106.645 -2.38419e-06 107.445 0.699998 107.895 1.8L110.845 8.8L113.745 1.8C114.195 0.699998 115.245 -2.38419e-06 116.395 -2.38419e-06C118.145 -2.38419e-06 119.345 1.45 119.345 2.95C119.345 3.3 119.295 3.7 119.145 4.05L113.995 16.35L117.395 24.5L126.845 1.8C127.295 0.699998 128.345 -2.38419e-06 129.495 -2.38419e-06C129.895 -2.38419e-06 130.295 0.0999993 130.645 0.249997ZM151.391 28.9L151.441 32.1C151.441 33.65 150.141 35 148.541 35C147.391 35 146.391 34.35 145.941 33.4C144.891 33.95 143.741 34.35 142.491 34.6C142.091 34.65 140.891 34.95 139.341 34.95C135.091 34.95 132.141 32.8 131.241 29C131.091 28.45 131.041 27.9 131.041 27.35C131.041 25.95 131.491 24.6 132.341 23.5C133.491 22 135.891 20.2 141.291 20C142.041 20 142.741 19.95 143.491 19.95C144.041 19.95 144.691 19.95 145.391 20.05C145.241 19.25 144.891 18.4 144.391 18.1C143.641 17.7 142.741 17.5 141.891 17.5C139.991 17.5 138.091 18.35 137.041 19.2C136.491 19.65 135.841 19.85 135.191 19.85C134.341 19.85 133.541 19.5 132.941 18.8C132.491 18.25 132.291 17.6 132.291 16.95C132.291 16.1 132.641 15.25 133.341 14.7C135.341 13.05 137.791 12 140.491 11.75C140.941 11.7 141.341 11.7 141.791 11.7C143.791 11.7 145.691 12.15 147.241 13C151.241 15.25 151.391 20.5 151.391 21.05V28.9ZM144.941 26.5L145.191 25.9C144.841 25.85 144.291 25.8 143.491 25.8C142.841 25.8 142.141 25.8 140.941 25.85C138.641 25.95 137.341 26.55 136.991 27C136.941 27.1 136.841 27.2 136.841 27.4C136.841 27.45 136.891 27.55 136.891 27.65C137.041 28.25 137.241 29.1 139.341 29.1C140.241 29.1 140.991 28.95 141.241 28.9C141.341 28.85 141.391 28.85 141.441 28.85C143.291 28.5 144.441 27.4 144.941 26.5ZM174.644 11.95C175.694 12.45 176.294 13.5 176.294 14.6C176.294 15.05 176.194 15.45 175.994 15.85L167.694 33.35C167.244 34.35 166.194 35 165.094 35C163.944 35 162.944 34.35 162.444 33.35L154.144 15.85C153.944 15.45 153.844 15.05 153.844 14.6C153.844 13.5 154.444 12.45 155.494 11.95C155.894 11.75 156.344 11.65 156.744 11.65C157.844 11.65 158.894 12.3 159.394 13.35L165.094 25.3L170.744 13.35C171.244 12.3 172.294 11.65 173.394 11.65C173.794 11.65 174.244 11.75 174.644 11.95ZM189.304 35C188.904 35 188.604 35 188.404 34.95C185.354 34.8 182.704 33.5 180.904 31.25C179.254 29.15 178.404 26.4 178.404 23.3C178.404 16.85 183.004 11.65 188.604 11.65C191.404 11.65 194.004 12.8 195.904 14.95C197.804 17 198.804 19.8 198.804 22.8C198.804 24.4 197.504 25.75 195.904 25.75H184.554C185.054 27.35 186.154 29.05 188.704 29.15H189.004C189.754 29.15 191.154 29.15 192.404 28.25C192.904 27.95 193.454 27.8 194.004 27.8C194.954 27.8 195.904 28.25 196.454 29.1C196.804 29.55 196.954 30.1 196.954 30.65C196.954 31.6 196.454 32.6 195.604 33.15C193.204 34.75 190.704 35 189.304 35ZM185.104 19.9H192.354C191.604 18.4 190.254 17.45 188.604 17.45C187.204 17.45 185.904 18.45 185.104 19.9Z" fill="white"/>
</svg>
