<svg width="116" height="104" viewBox="0 0 116 104" fill="none" xmlns="http://www.w3.org/2000/svg">
<path d="M35.07 56.85C37.1 55.8 39.55 56.5 40.67 58.53C41.72 60.49 40.95 62.94 38.99 64.06C35.42 65.95 31.43 67 27.3 67C13.79 67 2.8 56.01 2.8 42.5C2.8 28.99 13.79 18 27.3 18C31.43 18 35.42 19.05 38.99 20.94C40.95 22.06 41.72 24.51 40.67 26.47C39.55 28.5 37.1 29.2 35.07 28.15C32.76 26.82 30.03 26.19 27.3 26.19C18.34 26.19 10.99 33.47 10.99 42.5C10.99 51.53 18.34 58.81 27.3 58.81C30.03 58.81 32.76 58.18 35.07 56.85Z" fill="#BD3ECD"/>
<path d="M81.83 31.35C83.44 31.98 84.35 33.52 84.35 35.13C84.35 35.62 84.28 36.18 84.07 36.67L66.99 77.48C66.36 79.02 64.89 80 63.28 80C61.6 80 60.13 79.02 59.5 77.48L54.11 64.53L48.65 77.48C48.02 79.02 46.55 80 44.94 80C43.26 80 41.79 79.02 41.16 77.48L24.08 36.67C23.87 36.18 23.8 35.62 23.8 35.13C23.8 33.03 25.48 31 27.93 31C29.54 31 31.01 31.98 31.64 33.52L44.94 65.3L49.63 53.89L42.49 36.67C42.28 36.18 42.14 35.62 42.14 35.06C42.14 32.96 43.82 31 46.27 31C48.23 31 49.35 31.98 49.98 33.52L54.11 43.32L58.17 33.52C58.8 31.98 60.27 31 61.88 31C64.33 31 66.01 33.03 66.01 35.13C66.01 35.62 65.94 36.18 65.73 36.67L58.52 53.89L63.28 65.3L76.51 33.52C77.14 31.98 78.61 31 80.22 31C80.78 31 81.34 31.14 81.83 31.35Z" fill="#B24093"/>
</svg>
