<svg width="352" height="80" viewBox="0 0 352 80" fill="none" xmlns="http://www.w3.org/2000/svg">
<g clip-path="url(#clip0_2394_198)">
<path d="M39.616 0.3125C19.3559 0.312501 20.6211 9.0985 20.6211 9.0985L20.6437 18.2007H39.9774V20.9336H12.9644C12.9644 20.9336 0 19.4633 0 39.906C-1.445e-06 60.3486 11.3156 59.6236 11.3156 59.6236H18.0689V50.1375C18.0689 50.1375 17.7049 38.8218 29.2038 38.8218H48.3794C48.3794 38.8218 59.153 38.996 59.153 28.4096V10.9054C59.153 10.9054 60.7887 0.3125 39.616 0.3125ZM28.9554 6.43334C30.879 6.43333 32.4337 7.98803 32.4337 9.9116C32.4337 11.8352 30.879 13.3899 28.9554 13.3899C27.0318 13.3899 25.4771 11.8352 25.4771 9.9116C25.4771 7.98803 27.0318 6.43334 28.9554 6.43334Z" fill="#BD3ECD"/>
<path d="M40.1913 79.7045C60.4514 79.7045 59.1862 70.9185 59.1862 70.9185L59.1636 61.8163H39.8299V59.0833H66.8429C66.8429 59.0833 79.8073 60.5536 79.8073 40.111C79.8073 19.6684 68.4917 20.3933 68.4917 20.3933H61.7384V29.8795C61.7384 29.8795 62.1025 41.1951 50.6035 41.1951H31.4279C31.4279 41.1951 20.6543 41.021 20.6543 51.6073V69.1116C20.6543 69.1116 19.0186 79.7045 40.1913 79.7045ZM50.8519 73.5836C48.9284 73.5836 47.3737 72.0289 47.3737 70.1054C47.3737 68.1818 48.9284 66.6271 50.8519 66.6271C52.7755 66.6271 54.3302 68.1818 54.3302 70.1054C54.3302 72.0289 52.7755 73.5836 50.8519 73.5836Z" fill="#B24093"/>
</g>
<path d="M109.035 54.5117V20.5029C109.035 20.1774 109.198 20.0065 109.523 19.9902H124.025C128.192 19.9902 131.398 20.9912 133.645 22.9932C135.907 24.9951 137.038 27.9167 137.038 31.7578C137.038 35.5827 135.907 38.4961 133.645 40.498C131.398 42.5 128.192 43.501 124.025 43.501H113.527V54.5117C113.527 54.8372 113.365 55 113.039 55H109.523C109.198 55 109.035 54.8372 109.035 54.5117ZM113.527 40.0098H124.025C126.662 40.0098 128.737 39.3262 130.251 37.959C131.765 36.5918 132.521 34.5247 132.521 31.7578C132.521 28.9909 131.765 26.9238 130.251 25.5566C128.737 24.1895 126.662 23.5059 124.025 23.5059H113.527V40.0098ZM140.578 28.7549C140.546 28.6898 140.529 28.6247 140.529 28.5596C140.529 28.348 140.676 28.2422 140.969 28.2422H144.338C144.729 28.2422 144.973 28.4131 145.07 28.7549L150.637 44.7461C151.369 46.8132 152.207 48.2943 153.151 49.1895C154.095 50.0684 155.389 50.5078 157.033 50.5078L162.771 28.7549C162.868 28.4131 163.12 28.2422 163.527 28.2422H166.872C167.181 28.2422 167.336 28.348 167.336 28.5596C167.336 28.6247 167.32 28.6898 167.287 28.7549L160.622 53.999C159.694 57.4984 158.457 60.0374 156.911 61.6162C155.381 63.2113 153.371 64.0088 150.881 64.0088C149.139 64.0088 147.536 63.7565 146.071 63.252L145.388 63.0078C145.046 62.8288 144.875 62.609 144.875 62.3486V59.9072C144.875 59.5003 145.046 59.362 145.388 59.4922C147.048 60.1595 148.675 60.4932 150.271 60.4932C151.882 60.4932 153.111 60.0293 153.957 59.1016C154.803 58.1738 155.528 56.473 156.13 53.999C153.526 53.999 151.507 53.3154 150.075 51.9482C148.643 50.5811 147.325 48.1641 146.12 44.6973L140.578 28.7549ZM173.342 44.7461V20.5029C173.342 20.1611 173.505 19.9902 173.83 19.9902H177.346C177.671 19.9902 177.834 20.1611 177.834 20.5029V28.2422H188.039C188.365 28.2422 188.527 28.4131 188.527 28.7549V31.2451C188.527 31.5869 188.365 31.7578 188.039 31.7578H177.834V44.7461C177.834 47.2201 178.404 49.0918 179.543 50.3613C180.699 51.6146 182.294 52.2412 184.328 52.2412C186.118 52.2412 187.722 51.9971 189.138 51.5088L189.846 51.2402C190.171 51.11 190.334 51.2484 190.334 51.6553V54.0967C190.334 54.3734 190.171 54.5931 189.846 54.7559C188.169 55.4232 186.167 55.7568 183.84 55.7568C180.633 55.7568 178.078 54.7477 176.174 52.7295C174.286 50.7113 173.342 48.0501 173.342 44.7461ZM196.877 54.5117V20.5029C196.877 20.1611 197.04 19.9902 197.365 19.9902H200.881C201.206 19.9902 201.369 20.1611 201.369 20.5029V31.2451C201.499 31.0498 201.898 30.6755 202.565 30.1221C203.233 29.5687 203.876 29.1211 204.494 28.7793C206.073 27.9329 207.863 27.5098 209.865 27.5098C213.234 27.5098 215.993 28.5514 218.142 30.6348C220.29 32.7181 221.364 35.5908 221.364 39.2529V54.5117C221.364 54.8372 221.201 55 220.876 55H217.36C217.035 55 216.872 54.8372 216.872 54.5117V39.2529C216.872 36.6162 216.188 34.5817 214.821 33.1494C213.454 31.7171 211.721 31.001 209.621 31.001C208.156 31.001 206.732 31.4079 205.349 32.2217C203.965 33.0355 202.956 33.8005 202.321 34.5166C201.687 35.2327 201.369 35.6478 201.369 35.7617V54.5117C201.369 54.8372 201.206 55 200.881 55H197.365C197.04 55 196.877 54.8372 196.877 54.5117ZM241.896 55.7568C238.007 55.7568 234.865 54.5361 232.473 52.0947C230.096 49.637 228.908 46.1377 228.908 41.5967C228.908 37.0394 230.096 33.5563 232.473 31.1475C234.865 28.7223 238.007 27.5098 241.896 27.5098C245.803 27.5098 248.944 28.7223 251.32 31.1475C253.713 33.5563 254.909 37.0394 254.909 41.5967C254.909 46.1377 253.713 49.637 251.32 52.0947C248.944 54.5361 245.803 55.7568 241.896 55.7568ZM241.896 31.001C239.374 31.001 237.323 31.888 235.744 33.6621C234.182 35.4199 233.4 38.0566 233.4 41.5723C233.4 45.0879 234.182 47.749 235.744 49.5557C237.323 51.346 239.374 52.2412 241.896 52.2412C244.436 52.2412 246.486 51.346 248.049 49.5557C249.628 47.749 250.417 45.0879 250.417 41.5723C250.417 38.0566 249.628 35.4199 248.049 33.6621C246.486 31.888 244.436 31.001 241.896 31.001ZM262.941 54.5117V28.7549C262.941 28.4131 263.104 28.2422 263.43 28.2422H266.188C266.514 28.2422 266.693 28.4131 266.726 28.7549L267.189 31.4893C267.385 31.2126 267.808 30.7975 268.459 30.2441C269.11 29.6745 269.745 29.2188 270.363 28.877C271.958 27.9655 273.814 27.5098 275.93 27.5098C279.299 27.5098 282.058 28.5514 284.206 30.6348C286.354 32.7181 287.429 35.5908 287.429 39.2529V54.5117C287.429 54.8372 287.266 55 286.94 55H283.425C283.099 55 282.937 54.8372 282.937 54.5117V39.2529C282.937 36.6162 282.253 34.5817 280.886 33.1494C279.519 31.7171 277.785 31.001 275.686 31.001C274.725 31.001 273.773 31.1882 272.829 31.5625C271.901 31.9206 271.128 32.3519 270.51 32.8564C269.891 33.3447 269.346 33.8493 268.874 34.3701C267.914 35.3955 267.434 36.0221 267.434 36.25V54.5117C267.434 54.8372 267.271 55 266.945 55H263.43C263.104 55 262.941 54.8372 262.941 54.5117Z" fill="black"/>
<defs>
<clipPath id="clip0_2394_198">
<rect width="80" height="80" fill="white"/>
</clipPath>
</defs>
</svg>
