<svg width="112" height="80" viewBox="0 0 112 80" fill="none" xmlns="http://www.w3.org/2000/svg">
<path d="M70.5386 36.6736C69.8744 36.6736 69.3334 37.2146 69.3334 37.8798V57.5446H65.8576L59.1866 43.6654C60.1386 42.588 60.546 41.0934 60.2352 39.6636C60.092 38.957 59.7837 38.2943 59.3356 37.7295C58.8875 37.1648 58.3121 36.714 57.6566 36.414V34.7892C57.6808 34.215 57.3714 33.6318 56.848 33.3078C56.5698 33.1428 56.2712 33.061 55.9676 33.061C55.6637 33.061 55.3655 33.1426 55.104 33.2974C54.5638 33.6316 54.2544 34.2148 54.2794 34.8298L54.2788 36.2718C52.249 37.0054 50.955 39.1024 51.3054 41.3112C51.4472 42.2187 51.8596 43.0624 52.4886 43.7318L46.0694 57.5446H40.1856C37.9958 57.5306 36.2262 55.755 36.2192 53.5654V26.032C36.2082 28.2368 37.9864 30.0332 40.191 30.0444C40.2794 30.0448 40.3679 30.0424 40.4562 30.037H69.9468C69.9468 30.037 75.0154 29.5992 75.6706 33.1154C75.1724 33.1728 74.7808 33.5796 74.7808 34.0932C74.7808 35.5162 73.6226 36.6734 72.1752 36.6734L70.5386 36.6736ZM66.444 61.0732C66.9134 62.0406 66.5098 63.2052 65.5426 63.6746C65.2834 63.8004 65.0094 63.8536 64.739 63.86C64.5225 63.8654 64.3066 63.8346 64.1002 63.769C64.0522 63.7534 64.0082 63.7272 63.9614 63.708C63.7983 63.641 63.6451 63.5522 63.506 63.4438C63.4566 63.4054 63.407 63.3678 63.3612 63.3242C63.1962 63.1676 63.0464 62.9898 62.9412 62.7728L60.4304 57.5442L57.3134 51.0538C57.1887 50.7881 56.9909 50.5634 56.7431 50.406C56.4953 50.2487 56.2079 50.1651 55.9144 50.1652H55.9096C55.6141 50.1664 55.3248 50.2503 55.0745 50.4073C54.8241 50.5644 54.6227 50.7883 54.493 51.0538L51.4712 57.5442L49.007 62.837C48.8684 63.1551 48.6472 63.4303 48.3664 63.6341C48.0856 63.8379 47.7554 63.9629 47.41 63.996C47.2848 64.0066 47.1624 63.9912 47.04 63.9786C46.9712 63.9714 46.902 63.968 46.835 63.9538C46.7372 63.9332 46.6442 63.8982 46.551 63.8634C46.4908 63.8408 46.4284 63.824 46.3708 63.7956C46.2716 63.7468 46.1812 63.6826 46.0914 63.6178C46.048 63.5866 46 63.5628 45.959 63.5278C45.8308 63.4198 45.7168 63.2958 45.62 63.159C45.4238 62.8726 45.3073 62.5392 45.2824 62.193C45.2575 61.8467 45.3251 61.5001 45.4784 61.1886L47.1722 57.544L53.7074 43.4812C52.9487 42.9211 52.4407 42.0852 52.293 41.1538C51.982 39.194 53.3188 37.3532 55.2786 37.042V34.7892C55.2735 34.6638 55.3018 34.5393 55.3606 34.4284C55.4194 34.3175 55.5067 34.2243 55.6134 34.1582C55.7205 34.0946 55.8428 34.061 55.9675 34.061C56.0921 34.061 56.2144 34.0946 56.3216 34.1582C56.4283 34.2243 56.5155 34.3175 56.5744 34.4284C56.6332 34.5393 56.6615 34.6638 56.6564 34.7892V37.1072L56.6822 37.12C57.3241 37.2968 57.9045 37.6479 58.3591 38.1343C58.8137 38.6208 59.1248 39.2236 59.2578 39.876C59.4003 40.5315 59.355 41.214 59.1272 41.8449C58.8994 42.4759 58.4983 43.0299 57.97 43.4432L64.7478 57.5446L66.444 61.0732ZM57.9682 40.612C57.9766 39.3958 56.9974 38.4032 55.7812 38.395C55.1933 38.3952 54.629 38.6264 54.21 39.0388C53.8 39.4482 53.5679 40.0026 53.564 40.582C53.5556 41.7982 54.5348 42.7908 55.751 42.799H55.7664C56.9756 42.799 57.9598 41.823 57.9682 40.612ZM55.9142 51.1656C55.6904 51.1666 55.49 51.292 55.4 51.4762L52.5746 57.5446H59.3212L56.4084 51.479C56.364 51.3854 56.2941 51.3063 56.2066 51.2508C56.1191 51.1953 56.0177 51.1658 55.9142 51.1656ZM72.2006 37.6738L72.1748 37.6736H70.5394C70.5123 37.6736 70.4855 37.6789 70.4605 37.6893C70.4355 37.6996 70.4128 37.7148 70.3937 37.7339C70.3746 37.7531 70.3594 37.7758 70.349 37.8008C70.3387 37.8258 70.3334 37.8525 70.3334 37.8796V63.7002C70.3333 63.7527 70.3532 63.8032 70.3891 63.8415C70.425 63.8798 70.4742 63.9029 70.5266 63.9062H72.2136C74.1858 63.8992 75.7808 62.2982 75.7808 60.3262V34.0936C75.7808 36.071 74.178 37.6738 72.2006 37.6738ZM37.2196 26.0322V26.0702C37.2274 27.7022 38.5634 29.0362 40.1944 29.044C40.2816 29.0413 40.3689 29.039 40.4562 29.0372H42.7134C43.1078 26.4072 44.2348 23.9872 45.9894 22.0654H40.1986C38.3454 22.0716 36.8044 23.3456 36.3604 25.0604C36.8438 25.1314 37.2196 25.5304 37.2196 26.0322ZM49.8958 20.2368L47.8224 16.6568C47.784 16.5902 47.7637 16.5147 47.7637 16.4379C47.7637 16.3611 47.784 16.2856 47.8224 16.219C47.8629 16.1556 47.9179 16.1027 47.9829 16.0646C48.0478 16.0266 48.1208 16.0044 48.196 16C48.2718 16.001 48.3461 16.0217 48.4116 16.0601C48.477 16.0984 48.5314 16.1531 48.5694 16.2188L50.6686 19.8504C52.3411 19.0992 54.1537 18.7108 55.9872 18.7108C57.8206 18.7108 59.6333 19.0992 61.3058 19.8504L63.392 16.2188C63.4579 16.1374 63.5508 16.0824 63.6538 16.0637C63.7569 16.045 63.8632 16.0638 63.9535 16.1167C64.0439 16.1697 64.1122 16.2533 64.1462 16.3523C64.1802 16.4514 64.1776 16.5593 64.1388 16.6566L62.0784 20.2366C65.4126 22.0616 67.6732 25.3244 68.2734 29.0402L43.7014 29.0374C44.3022 25.323 46.5624 22.0614 49.8958 20.2368ZM60.6506 25.4772C60.6537 25.6125 60.6835 25.7458 60.7382 25.8695C60.7929 25.9932 60.8715 26.105 60.9693 26.1984C61.0672 26.2918 61.1826 26.365 61.3088 26.4138C61.4349 26.4626 61.5695 26.486 61.7048 26.4828C61.8401 26.4828 61.974 26.4562 62.099 26.4044C62.224 26.3527 62.3376 26.2768 62.4333 26.1811C62.529 26.0855 62.6048 25.9719 62.6566 25.8469C62.7084 25.7219 62.735 25.5879 62.735 25.4526C62.7338 25.2472 62.672 25.0468 62.5573 24.8765C62.4426 24.7061 62.2802 24.5734 62.0904 24.495C61.9006 24.4166 61.6919 24.396 61.4904 24.4358C61.289 24.4756 61.1037 24.5739 60.958 24.7186C60.8576 24.8173 60.7786 24.9356 60.7257 25.0661C60.6728 25.1965 60.6473 25.3365 60.6506 25.4772ZM49.215 25.4638C49.2164 25.5991 49.2445 25.7328 49.2977 25.8572C49.3508 25.9816 49.4279 26.0944 49.5246 26.189C49.6213 26.2836 49.7357 26.3583 49.8613 26.4087C49.9868 26.4591 50.1211 26.4843 50.2564 26.4828C50.3923 26.485 50.5273 26.4599 50.6534 26.409C50.7794 26.3581 50.894 26.2825 50.9904 26.1866C51.1027 26.0942 51.1945 25.9793 51.2598 25.8493C51.3251 25.7193 51.3625 25.577 51.3695 25.4317C51.3766 25.2864 51.3532 25.1412 51.3008 25.0055C51.2484 24.8698 51.1682 24.7465 51.0653 24.6437C50.9625 24.5408 50.8392 24.4606 50.7035 24.4082C50.5678 24.3557 50.4226 24.3323 50.2773 24.3393C50.132 24.3464 49.9897 24.3837 49.8597 24.449C49.7297 24.5143 49.6148 24.6061 49.5224 24.7184C49.4236 24.8156 49.3455 24.9317 49.2927 25.0598C49.2399 25.1878 49.2134 25.3253 49.215 25.4638Z" fill="white"/>
</svg>
