<svg width="112" height="80" viewBox="0 0 112 80" fill="none" xmlns="http://www.w3.org/2000/svg">
<g clip-path="url(#clip0_115_472)">
<path d="M85.5842 30.2533C84.287 38.3838 80.1476 45.7904 73.9025 51.1555C67.6573 56.5207 59.7113 59.4964 51.4782 59.5533C49.8107 59.6174 48.1408 59.516 46.4932 59.2508C43.0475 58.6658 39.9065 56.917 37.5943 54.2961C35.282 51.6753 33.9383 48.3408 33.7872 44.8491C33.8217 40.9554 35.3856 37.2313 38.1415 34.4804C40.8973 31.7295 44.6242 30.1724 48.5179 30.1449C52.4116 30.1174 56.1601 31.6218 58.9545 34.3335C61.7489 37.0451 63.3653 40.7467 63.4547 44.6396C63.5172 47.0983 62.452 49.2556 60.2622 49.3178C57.9232 49.3178 56.8267 47.6486 56.8267 45.3993V39.1491C56.8278 38.1381 56.4289 37.1679 55.7172 36.4499C55.0054 35.732 54.0386 35.3248 53.0277 35.3171H47.788C46.264 35.3066 44.7616 35.6783 43.4183 36.3981C42.0749 37.1179 40.9333 38.1628 40.0979 39.4375C39.2624 40.7121 38.7597 42.1758 38.6356 43.6948C38.5116 45.2138 38.7702 46.7397 39.3878 48.133C40.0054 49.5263 40.9623 50.7426 42.1711 51.6708C43.3799 52.599 44.8021 53.2095 46.3076 53.4464C47.8131 53.6834 49.354 53.5393 50.7895 53.0273C52.225 52.5153 53.5092 51.6518 54.525 50.5156L54.7082 50.2423L54.8917 50.5456C55.522 51.4017 56.354 52.0889 57.3138 52.5459C58.2737 53.0029 59.3316 53.2157 60.3935 53.1653C62.2862 53.0278 64.0502 52.1559 65.3089 50.7356C66.5676 49.3154 67.2212 47.4594 67.1302 45.5638C67.1487 43.9373 66.9665 42.3147 66.5877 40.7328C65.6161 36.2638 63.0244 32.3127 59.3123 29.6412C55.6003 26.9697 51.0306 25.7669 46.4844 26.2648C41.9381 26.7627 37.7371 28.926 34.6913 32.3376C31.6454 35.7492 29.9703 40.1677 29.989 44.7411C30.0475 49.5904 31.9834 54.2283 35.3899 57.6802C38.7964 61.1321 43.4083 63.1292 48.2565 63.2518C48.2565 63.2518 49.629 63.3768 51.1757 63.3411C58.6956 63.2935 66.0457 61.1007 72.3625 57.0203C72.4525 56.9578 72.5422 57.0828 72.4825 57.1738C69.4071 60.4864 65.6466 63.0887 61.4628 64.7995C57.279 66.5104 52.7725 67.2886 48.2572 67.0801C45.3054 67.1336 42.3733 66.5887 39.6378 65.4782C36.9023 64.3677 34.42 62.7146 32.3408 60.6186C30.2616 58.5227 28.6285 56.0272 27.54 53.2829C26.4515 50.5385 25.9302 47.6021 26.0075 44.6508C26.0089 41.1322 26.831 37.6624 28.4085 34.5173C29.986 31.3721 32.2754 28.6383 35.0947 26.5331C38.8835 23.7431 43.4621 22.2316 48.1672 22.2176H55.1997C57.9468 22.2155 60.6633 21.6415 63.1764 20.532C65.6894 19.4225 67.9439 17.8019 69.7962 15.7733C69.8354 15.7298 69.8874 15.7 69.9447 15.6883C70.0019 15.676 70.0616 15.6819 70.1152 15.7053C70.1688 15.7288 70.2137 15.7685 70.2435 15.8188C70.2736 15.8694 70.2872 15.9281 70.2822 15.9868C69.9842 19.1475 68.9319 22.1905 67.2137 24.8601C67.188 24.9064 67.1765 24.9594 67.1807 25.0123C67.185 25.0649 67.2043 25.1152 67.2364 25.1571C67.2686 25.199 67.3121 25.2307 67.3617 25.2486C67.4114 25.2662 67.4652 25.2691 67.5165 25.2568C70.7627 24.5236 73.7915 23.0386 76.3591 20.9214C78.9268 18.8042 80.9617 16.1138 82.3 13.0668C82.3339 13.0123 82.3808 12.967 82.4365 12.9351C82.4926 12.9034 82.5559 12.8868 82.6202 12.8868C82.6846 12.8868 82.7479 12.9034 82.804 12.9351C82.8598 12.9669 82.9067 13.0122 82.9405 13.0668C85.6967 18.3461 86.6263 24.3897 85.5842 30.2533ZM48.2385 39.0708C47.1566 39.0707 46.0989 39.3914 45.1993 39.9923C44.2996 40.5933 43.5984 41.4476 43.1843 42.4471C42.7702 43.4466 42.6618 44.5465 42.8728 45.6077C43.0838 46.6688 43.6048 47.6435 44.3698 48.4086C45.1348 49.1736 46.1095 49.6946 47.1706 49.9057C48.2318 50.1168 49.3317 50.0084 50.3312 49.5944C51.3307 49.1803 52.1851 48.4791 52.7861 47.5795C53.3871 46.6799 53.7078 45.6222 53.7077 44.5403V39.4341C53.7029 39.3364 53.6619 39.244 53.5928 39.1748C53.5236 39.1056 53.4312 39.0646 53.3335 39.0598L48.2385 39.0708Z" fill="white"/>
</g>
<defs>
<clipPath id="clip0_115_472">
<rect width="60" height="60" fill="white" transform="translate(26 10)"/>
</clipPath>
</defs>
</svg>
