<svg width="112" height="80" viewBox="0 0 112 80" fill="none" xmlns="http://www.w3.org/2000/svg">
<path d="M86 31.925H79.83V50.8375H76.2675V31.925H70.1125V28.825H86V31.925ZM68.87 50.8375H56.8175V28.825H68.3925V31.925H60.38V38.16H67.7625V41.245H60.38V47.755H68.87V50.8375ZM52.1 50.8375H48.205L37.95 34.6575C37.6935 34.2548 37.4774 33.8277 37.305 33.3825H37.215C37.295 33.855 37.335 34.8625 37.335 36.4075V50.8375H33.8925V28.825H38.04L47.9525 44.625C48.37 45.2775 48.64 45.73 48.76 45.975H48.82C48.72 45.3925 48.67 44.4025 48.67 43.0125V28.8225H52.1V50.8375ZM30.3425 49.105C30.3425 49.3774 30.2863 49.6471 30.1771 49.8987C30.0679 50.1503 29.9078 50.3789 29.706 50.5713C29.5043 50.7638 29.2648 50.9164 29.0012 51.0204C28.7376 51.1245 28.4552 51.1778 28.17 51.1775C27.8848 51.1775 27.6024 51.1238 27.339 51.0195C27.0755 50.9152 26.8362 50.7623 26.6347 50.5696C26.4331 50.3769 26.2733 50.1481 26.1644 49.8964C26.0555 49.6447 25.9997 49.3749 26 49.1025C26.0007 48.5533 26.2296 48.0268 26.6365 47.6386C27.0434 47.2505 27.5949 47.0325 28.17 47.0325C28.4552 47.0322 28.7376 47.0856 29.0012 47.1896C29.2648 47.2936 29.5043 47.4462 29.706 47.6387C29.9078 47.8312 30.0679 48.0597 30.1771 48.3113C30.2863 48.5629 30.3425 48.8326 30.3425 49.105Z" fill="white"/>
</svg>
