<svg width="112" height="80" viewBox="0 0 112 80" fill="none" xmlns="http://www.w3.org/2000/svg">
<g clip-path="url(#clip0_115_472)">
<path d="M79.092 37.86L58.134 16.904C56.926 15.698 54.97 15.698 53.758 16.904L49.416 21.254L54.936 26.774C56.226 26.344 57.694 26.634 58.714 27.656C59.746 28.686 60.03 30.172 59.59 31.456L64.906 36.776C66.196 36.33 67.68 36.62 68.706 37.646C70.148 39.086 70.148 41.414 68.706 42.854C67.268 44.292 64.944 44.292 63.506 42.854C62.428 41.772 62.158 40.18 62.698 38.862L57.72 33.91V46.96C58.072 47.132 58.404 47.366 58.696 47.656C60.122 49.098 60.122 51.422 58.696 52.856C57.258 54.298 54.918 54.298 53.478 52.856C52.04 51.418 52.04 49.098 53.478 47.66C53.842 47.3 54.252 47.028 54.688 46.848V33.67C54.254 33.488 53.84 33.226 53.488 32.868C52.398 31.778 52.136 30.184 52.696 28.85L47.272 23.4L32.9 37.762C31.7 38.972 31.7 40.93 32.9 42.14L53.86 63.094C55.068 64.302 57.024 64.302 58.232 63.094L79.092 42.234C80.302 41.028 80.302 39.07 79.092 37.86Z" fill="white"/>
</g>
<defs>
<clipPath id="clip0_115_472">
<rect width="48" height="48" fill="white" transform="translate(32 16)"/>
</clipPath>
</defs>
</svg>
