<svg width="112" height="80" viewBox="0 0 112 80" fill="none" xmlns="http://www.w3.org/2000/svg">
<g clip-path="url(#clip0_115_472)">
<path d="M48.2202 56.4012C48.2202 56.4012 45.9273 57.7346 49.8519 58.1858C54.6065 58.7282 57.0364 58.6504 62.276 57.6588C62.276 57.6588 63.6535 58.5225 65.5773 59.2706C53.8317 64.3046 38.9946 58.979 48.2202 56.4012Z" fill="white"/>
<path d="M46.7853 49.8323C46.7853 49.8323 44.2136 51.7359 48.1412 52.1421C53.2201 52.6661 57.2311 52.7089 64.1716 51.3725C64.1716 51.3725 65.1315 52.3457 66.641 52.8779C52.4398 57.0306 36.6222 53.2054 46.7853 49.8323Z" fill="white"/>
<path d="M58.8848 38.689C61.7789 42.0211 58.1244 45.0195 58.1244 45.0195C58.1244 45.0195 65.473 41.2259 62.0981 36.4754C58.9461 32.0452 56.5288 29.8441 69.6147 22.2548C69.6147 22.2548 49.0742 27.3848 58.8848 38.689Z" fill="#BD3ECD"/>
<path d="M74.4194 61.2602C74.4194 61.2602 76.1161 62.6582 72.5507 63.7398C65.771 65.7936 44.3327 66.4138 38.3772 63.8216C36.2363 62.8903 40.251 61.5978 41.5139 61.3266C42.8309 61.041 43.5836 61.0942 43.5836 61.0942C41.2027 59.417 28.1948 64.3875 36.9762 65.8109C60.9242 69.6946 80.6312 64.0621 74.4194 61.2602Z" fill="white"/>
<path d="M49.3232 43.026C49.3232 43.026 38.4183 45.6161 45.4615 46.5567C48.4354 46.9548 54.3637 46.8647 59.8857 46.402C64.3987 46.0214 68.9302 45.212 68.9302 45.212C68.9302 45.212 67.3389 45.8934 66.1876 46.6796C55.1139 49.592 33.7215 48.2371 39.8801 45.258C45.0884 42.7404 49.3232 43.026 49.3232 43.026Z" fill="white"/>
<path d="M68.8851 53.9604C80.142 48.1109 74.9372 42.4895 71.3044 43.2469C70.414 43.4322 70.0169 43.5928 70.0169 43.5928C70.0169 43.5928 70.3475 43.075 70.9788 42.8508C78.1658 40.3241 83.693 50.303 68.6588 54.2553C68.6588 54.2554 68.833 54.0997 68.8851 53.9604Z" fill="white"/>
<path d="M62.0984 10C62.0984 10 68.3327 16.2364 56.1855 25.8262C46.4447 33.5188 53.9643 37.905 56.1815 42.9163C50.4956 37.7863 46.3229 33.2703 49.1222 29.0672C53.231 22.8974 64.6138 19.9061 62.0984 10Z" fill="#BD3ECD"/>
<path d="M50.4291 69.8115C61.2343 70.5031 77.8271 69.4277 78.22 64.3149C78.22 64.3149 77.4646 66.2531 69.2901 67.7924C60.0675 69.528 48.6929 69.3253 41.9464 68.213C41.9466 68.2129 43.3275 69.3561 50.4291 69.8115Z" fill="white"/>
</g>
<defs>
<clipPath id="clip0_115_472">
<rect width="60" height="60" fill="white" transform="translate(26 10)"/>
</clipPath>
</defs>
</svg>
