<svg width="112" height="80" viewBox="0 0 112 80" fill="none" xmlns="http://www.w3.org/2000/svg">
<path d="M46.314 60.402C46.314 61.3559 45.9383 62.2708 45.2696 62.9455C44.6009 63.6202 43.6939 63.9995 42.748 64C41.8017 64 40.8941 63.6209 40.225 62.9462C39.5559 62.2714 39.18 61.3562 39.18 60.402C39.18 59.4478 39.5559 58.5326 40.225 57.8578C40.8941 57.1831 41.8017 56.804 42.748 56.804C43.6939 56.8045 44.6009 57.1838 45.2696 57.8585C45.9383 58.5332 46.314 59.4481 46.314 60.402ZM73.164 18.854C73.1642 19.229 73.0912 19.6003 72.9491 19.9468C72.807 20.2933 72.5986 20.6081 72.3358 20.8734C72.073 21.1386 71.7609 21.349 71.4174 21.4926C71.0739 21.6361 70.7058 21.71 70.334 21.71C69.962 21.7103 69.5936 21.6366 69.2499 21.4931C68.9062 21.3497 68.5939 21.1393 68.3309 20.8741C68.0678 20.6088 67.8592 20.2939 67.717 19.9473C67.5748 19.6006 67.5017 19.2291 67.502 18.854C67.502 18.479 67.5752 18.1078 67.7176 17.7614C67.8599 17.415 68.0686 17.1002 68.3316 16.8352C68.5946 16.5702 68.9068 16.36 69.2504 16.2167C69.5939 16.0734 69.9622 15.9997 70.334 16C71.0845 16 71.8044 16.3007 72.3351 16.8359C72.8658 17.3711 73.164 18.0971 73.164 18.854ZM41.984 22.672C41.9829 23.2311 41.7621 23.767 41.37 24.1621C40.9778 24.5573 40.4463 24.7795 39.892 24.78C39.337 24.78 38.8046 24.5578 38.412 24.1621C38.0193 23.7665 37.7985 23.2298 37.798 22.67C37.7985 22.1102 38.0193 21.5735 38.412 21.1779C38.8046 20.7822 39.337 20.56 39.892 20.56C40.447 20.5605 40.9791 20.7833 41.3714 21.1793C41.7636 21.5753 41.984 22.1122 41.984 22.672ZM56.656 25.706C64.194 25.706 70.776 28.466 74.192 32.554C72.9249 28.8938 70.554 25.7166 67.406 23.46C64.27 21.2136 60.5095 20.0051 56.652 20.004C52.7951 20.0055 49.0354 21.214 45.9 23.46C42.7512 25.7163 40.3796 28.8935 39.112 32.554C42.538 28.474 49.12 25.706 56.656 25.706ZM56.658 52.296C49.122 52.296 42.538 49.534 39.122 45.446C40.3896 49.1065 42.7612 52.2837 45.91 54.54C49.0444 56.787 52.8033 57.9969 56.66 58C60.5177 57.9983 64.2782 56.7891 67.414 54.542C70.562 52.2854 72.9329 49.1082 74.2 45.448C70.776 49.536 64.194 52.298 56.656 52.298L56.658 52.296Z" fill="white"/>
</svg>
