<svg width="112" height="80" viewBox="0 0 112 80" fill="none" xmlns="http://www.w3.org/2000/svg">
<g clip-path="url(#clip0_115_472)">
<path d="M57.8941 16C57.6961 16 57.4941 16.01 57.2941 16.032C56.3856 16.1112 55.5119 16.4188 54.7541 16.926C54.4261 16.944 54.1061 17.002 53.7781 17.032C50.2181 17.59 47.7041 19.426 45.9381 21.604C42.5341 26.634 42.5161 33.788 42.9761 38.546C43.356 35.6958 44.6632 33.0497 46.6961 31.016C46.8341 30.878 46.9961 30.744 47.1361 30.582L47.2041 30.514C47.3841 30.358 47.5641 30.206 47.7481 30.058C48.0193 29.8439 48.2968 29.6379 48.5801 29.44C48.6361 29.412 48.6921 29.386 48.7481 29.33L49.6201 28.784L49.6801 28.752L49.8161 28.682C50.1266 28.5152 50.4457 28.365 50.7721 28.232C50.8301 28.204 50.9121 28.174 50.9681 28.146C51.2221 28.034 51.5041 27.95 51.7581 27.866C51.7541 27.86 51.7461 27.858 51.7421 27.854L51.7861 27.838C51.6209 27.6648 51.4416 27.5056 51.2501 27.362C50.8069 27.0804 50.3082 26.8975 49.7881 26.826C49.2412 26.7279 48.684 26.7003 48.1301 26.744C47.5914 26.7712 47.0565 26.8482 46.5321 26.974C47.0281 26.77 47.5261 26.594 48.0721 26.49C48.6301 26.35 49.2181 26.268 49.8321 26.266C50.3621 26.266 50.9321 26.338 51.4721 26.536L51.4761 26.544C51.5321 26.572 51.5601 26.574 51.6161 26.604C51.7561 26.66 51.9261 26.742 52.0661 26.824C52.0861 26.836 52.1001 26.85 52.1181 26.86L52.1221 26.884C52.4021 27.052 52.6581 27.276 52.9101 27.53L52.9381 27.556C52.9461 27.556 52.9501 27.556 52.9581 27.552C53.5519 28.2277 54.2986 28.7516 55.136 29.08C55.9734 29.4084 56.8772 29.5318 57.7721 29.44L58.2801 29.36H58.3621L59.4761 29.132C63.2101 28.262 63.8461 28.118 65.7461 27.06C66.5461 26.418 66.8701 25.964 67.0061 25.536C67.1461 25.102 67.1161 24.626 67.1521 23.942L67.1481 23.962C67.1461 23.214 66.5841 22.362 65.7561 21.522C64.9361 20.688 63.8921 19.874 63.0241 19.13C61.9641 18.382 61.4541 17.694 60.9621 17.184C60.6149 16.801 60.1836 16.5039 59.7021 16.316C59.1211 16.1112 58.5101 16.0044 57.8941 16ZM62.6181 17.868C62.8581 18.094 63.0801 18.316 63.4281 18.56L63.4441 18.568L63.4541 18.58C64.3041 19.31 65.3801 20.14 66.2581 21.03C67.1341 21.922 67.8481 22.89 67.8521 23.96V23.968L67.8481 23.98C67.8141 24.618 67.8641 25.158 67.6721 25.75C67.4801 26.344 67.0501 26.926 66.1641 27.63L66.1401 27.65L66.1161 27.666C65.7336 27.8811 65.3441 28.0832 64.9481 28.272C67.4121 29.242 69.8821 30.414 72.5641 32.508V32.504C74.9841 34.378 77.2541 36.618 79.5441 39.984C79.3341 29.484 72.2461 20.69 62.6181 17.868ZM49.0681 17.96C47.5746 18.4113 46.1306 19.0123 44.7581 19.754C44.6181 19.83 44.4781 19.914 44.3401 19.994C40.7904 22.0158 37.8281 24.9266 35.7444 28.4403C33.6607 31.954 32.5275 35.9496 32.4561 40.034C32.5221 43.72 33.8221 46.476 35.8721 48.498C37.9941 50.594 40.9281 51.904 44.0901 52.566C47.2601 53.232 50.5841 53.45 53.5761 53.29C52.2287 53.0427 50.9314 52.5751 49.7361 51.906C49.3633 51.7019 48.9965 51.4871 48.6361 51.262C48.331 51.0435 48.0309 50.8181 47.7361 50.586L47.1461 50.082C46.9823 49.9464 46.8316 49.7958 46.6961 49.632C45.6992 48.6331 44.8645 47.4846 44.2221 46.228C44.1661 46.116 44.1101 45.976 44.0541 45.864C43.8015 45.3079 43.5889 44.7344 43.4181 44.148C43.2101 43.56 42.7821 42.272 42.4401 40.142V40.13C41.8421 35.436 41.3901 27.058 45.3681 21.196L45.3761 21.184L45.3841 21.172C46.4103 19.8899 47.658 18.802 49.0681 17.96ZM58.6201 25.666C58.7381 25.664 58.8601 25.666 58.9841 25.674C59.9681 25.76 60.7241 26.238 60.6961 26.774C60.6401 27.278 59.8281 27.646 58.8441 27.59C57.8601 27.506 57.1001 27.026 57.1281 26.49C57.1521 26.024 57.8001 25.688 58.6201 25.666ZM64.0181 28.648C63.6901 28.77 63.1161 28.932 62.7041 29.048C66.3741 31.236 68.9161 35.138 69.1341 39.678L69.1421 39.814C69.1481 39.968 69.1541 40.12 69.1561 40.28V40.36C69.1561 40.434 69.1461 40.504 69.1441 40.576C69.3461 45.308 68.5241 47.7 66.5621 51.816V51.82C64.5821 56.004 60.0881 61.08 56.5381 63.998C69.0481 63.718 79.1241 53.708 79.5261 41.23C77.0861 37.43 74.7101 35.058 72.1341 33.062C69.2741 30.828 66.6841 29.662 64.0181 28.648ZM68.2261 45.16C68.1361 45.396 68.0521 45.636 67.9501 45.864C67.8921 45.976 67.8381 46.116 67.7821 46.228C67.0556 47.6834 66.064 48.9904 64.8581 50.082L64.2681 50.586C63.9881 50.81 63.6781 51.036 63.3681 51.262C63.0157 51.4992 62.649 51.7143 62.2701 51.906C61.9041 52.106 61.5201 52.276 61.1341 52.442V52.446L61.1021 52.458C60.8309 52.5699 60.5561 52.6726 60.2781 52.766C56.2521 54.25 49.8781 54.5 43.9461 53.254C40.6861 52.572 37.6321 51.214 35.3821 48.994C34.4281 48.0499 33.6409 46.951 33.0541 45.744C35.4061 56.018 44.4641 63.718 55.3881 64C58.9081 61.3 63.9001 55.808 65.9281 51.518V51.514C67.1241 49.008 67.8681 47.222 68.2281 45.158L68.2261 45.16Z" fill="white"/>
</g>
<defs>
<clipPath id="clip0_115_472">
<rect width="48" height="48" fill="white" transform="translate(32 16)"/>
</clipPath>
</defs>
</svg>
