<svg width="112" height="80" viewBox="0 0 112 80" fill="none" xmlns="http://www.w3.org/2000/svg">
<g clip-path="url(#clip0_115_472)">
<path d="M76.5285 17.9496C75.8343 19.6149 74.9357 21.1875 73.8535 22.6311C71.5362 20.2348 68.7617 18.3277 65.6944 17.0224C62.6271 15.7171 59.3292 15.0402 55.9957 15.0318C52.6622 15.0234 49.3608 15.6836 46.287 16.9733C43.2131 18.2631 40.4291 20.1562 38.0996 22.5406C35.7701 24.9251 33.9425 27.7526 32.7249 30.8557C31.5072 33.9589 30.9243 37.2747 31.0105 40.6071C31.0968 43.9395 31.8505 47.2208 33.227 50.2568C34.6035 53.2928 36.5749 56.0219 39.0246 58.2827L39.9506 59.1059C43.4647 62.0695 47.7305 64.0028 52.2756 64.6915C56.8207 65.3802 61.4678 64.7974 65.7021 63.0078C69.9365 61.2182 73.5929 58.2916 76.2664 54.552C78.9399 50.8124 80.5263 46.4058 80.8498 41.8202C81.57 35.544 79.6667 27.5186 76.5285 17.9496ZM42.626 58.4886C42.3615 58.8136 42.0066 59.053 41.6061 59.1763C41.2056 59.2997 40.7775 59.3016 40.3759 59.1818C39.9744 59.062 39.6173 58.8258 39.3499 58.5031C39.0825 58.1804 38.9168 57.7857 38.8737 57.3689C38.8306 56.952 38.912 56.5317 39.1076 56.1612C39.3033 55.7906 39.6044 55.4863 39.9729 55.2868C40.3414 55.0872 40.7609 55.0015 41.1781 55.0402C41.5954 55.079 41.9918 55.2406 42.3173 55.5046C42.744 55.866 43.0144 56.3783 43.0719 56.9345C43.1295 57.4906 42.9697 58.0475 42.626 58.4886ZM76.3742 51.029C70.2523 59.2088 57.0823 56.4307 48.6967 56.8423C48.6967 56.8423 47.2048 56.9452 45.7127 57.1509C45.7127 57.1509 46.2787 56.8938 46.9989 56.6365C52.9152 54.5788 55.6931 54.1671 59.2944 52.315C66.0337 48.8682 72.7731 41.3059 74.1106 33.4861C71.5383 40.9971 63.7187 47.4792 56.6192 50.1029C51.7319 51.9036 42.9348 53.6527 42.9348 53.6527L42.5746 53.4469C36.6069 50.5144 36.4012 37.5502 47.3075 33.3832C52.0921 31.5311 56.6192 32.5602 61.8152 31.3254C67.3198 30.0392 73.6992 25.9236 76.2714 20.5219C79.1523 29.2161 82.6506 42.6948 76.3742 51.029Z" fill="white"/>
</g>
<defs>
<clipPath id="clip0_115_472">
<rect width="50" height="50" fill="white" transform="translate(31 15)"/>
</clipPath>
</defs>
</svg>
