<svg width="112" height="80" viewBox="0 0 112 80" fill="none" xmlns="http://www.w3.org/2000/svg">
<path d="M58.0898 22.6613L66.6392 27.5953C66.9465 27.7686 66.9575 28.2489 66.6392 28.4222L56.4804 34.2893C56.3356 34.3743 56.1707 34.4192 56.0027 34.4192C55.8348 34.4192 55.6699 34.3743 55.5251 34.2893L45.3665 28.4222C45.0538 28.2546 45.0482 27.7629 45.3665 27.5953L53.9102 22.661V13L32.0956 25.5948V50.7842L40.4604 45.9566V36.0886C40.4548 35.7365 40.8683 35.4851 41.1759 35.675L51.3342 41.5422C51.4799 41.6257 51.6009 41.7461 51.6853 41.8913C51.7697 42.0365 51.8143 42.2013 51.8148 42.3693V54.0978C51.8204 54.4499 51.4069 54.7013 51.0995 54.5114L42.5504 49.5773L34.1854 54.4052L56 67L77.8147 54.4052L69.4496 49.5773L60.9005 54.5114C60.5988 54.6959 60.174 54.4556 60.1853 54.0978V42.3693C60.1853 42.0171 60.381 41.7042 60.6659 41.5422L70.8244 35.675C71.1259 35.4905 71.5507 35.7254 71.5397 36.0886V45.9566L79.9045 50.7842V25.5948L58.0898 13V22.6613Z" fill="white"/>
</svg>
